<?xml version="1.0" encoding="UTF-8" standalone="no"?><!DOCTYPE svg PUBLIC "-//W3C//DTD SVG 1.1//EN" "http://www.w3.org/Graphics/SVG/1.1/DTD/svg11.dtd"><svg width="100%" height="100%" viewBox="0 0 1389 1389" version="1.1" xmlns="http://www.w3.org/2000/svg" xmlns:xlink="http://www.w3.org/1999/xlink" xml:space="preserve" xmlns:serif="http://www.serif.com/" style="fill-rule:evenodd;clip-rule:evenodd;stroke-linejoin:round;stroke-miterlimit:2;"><rect id="Artboard26" x="0" y="0" width="1388.89" height="1388.89" style="fill:none;"/><ellipse cx="694.323" cy="693.821" rx="686.442" ry="688.335" style="fill:#adf79a;"/><g><path d="M415.155,751.216c-3.511,30.416 -15.22,53.669 -30.416,71.362c-40.475,47.19 -105.573,55.13 -105.573,55.13c0,-0 -77.157,25.209 -80.877,16.232c-3.749,-8.999 26.219,-23.441 26.219,-23.441c0,-0 -42.878,-3.134 -40.687,-17.976c2.005,-13.429 40.122,-4.241 40.122,-4.241c-0,-0 -24.761,-11.12 -18.422,-32.607c6.265,-21.298 19.979,-10.036 17.338,-3.392c-2.639,6.644 -1.011,18.07 9.497,17.245c10.529,-0.824 13.45,-17.928 3.296,-23.324c-10.178,-5.371 -9,-13.075 -4.547,-17.08c6.01,-5.372 27.612,3.322 32.632,20.921c5.204,18.258 23.322,14.724 23.322,14.724c-0,0 40.405,5.089 72.495,-21.58c13.547,-11.238 25.609,-28.154 32.512,-53.528l23.089,1.555Z" style="fill:#f6aac1;fill-rule:nonzero;"/><path d="M200.001,847.566c-4.909,-0 -9.299,0.617 -11.855,2.341c-1.178,0.792 -1.812,1.734 -1.993,2.962c-0.214,1.449 0.174,2.735 1.228,4.047c5.939,7.412 28.938,10.621 37.299,11.234c1.065,0.077 1.944,0.86 2.144,1.906c0.198,1.05 -0.33,2.101 -1.291,2.563c-13.502,6.512 -26.797,16.268 -25.07,20.417c3.056,2.709 33.803,-3.136 77.973,-17.566l0.445,-0.099c0.643,-0.08 64.683,-8.406 104.07,-54.326c16.186,-18.846 26.123,-41.593 29.56,-67.645l-18.69,-1.26c-6.405,22.36 -17.422,40.138 -32.761,52.861c-31.314,26.023 -69.68,22.619 -73.956,22.143c-2.908,0.41 -20.356,2.052 -25.633,-16.454c-3.011,-10.562 -12.744,-17.794 -20.511,-20.042c-3.685,-1.063 -6.936,-0.971 -8.284,0.231c-1.793,1.614 -2.714,3.817 -2.457,5.887c0.339,2.733 2.599,5.278 6.533,7.353c6.627,3.523 8.38,10.927 7.179,16.702c-1.308,6.276 -5.777,10.616 -11.391,11.056c-5.65,0.455 -8.805,-2.127 -10.454,-4.365c-3.487,-4.729 -3.178,-11.662 -1.416,-16.099c0.427,-1.072 0.005,-2.634 -1.051,-3.885c-0.457,-0.541 -2.127,-2.259 -4.452,-1.785c-2.891,0.607 -5.584,4.471 -7.386,10.597c-5.69,19.29 16.899,29.69 17.128,29.793c1.112,0.5 1.658,1.76 1.265,2.91c-0.394,1.152 -1.6,1.809 -2.783,1.531c-4.716,-1.138 -14.84,-3.008 -23.39,-3.008Zm4.583,50.646c-5.794,-0 -7.697,-1.499 -8.472,-3.369c-3.317,-7.973 10.526,-17.354 20.381,-22.839c-10.138,-1.376 -26.832,-4.707 -32.79,-12.14c-1.875,-2.34 -2.62,-4.927 -2.212,-7.685c0.381,-2.561 1.736,-4.637 4.021,-6.182c6.147,-4.14 18.374,-3.461 27.56,-2.151c-6.728,-5.836 -13.744,-15.507 -9.81,-28.837c3.002,-10.202 7.605,-13.177 10.936,-13.877c3.261,-0.671 6.71,0.61 9.028,3.362c2.206,2.62 2.903,5.939 1.824,8.658c-1.305,3.289 -1.461,8.46 0.829,11.561c1.369,1.856 3.492,2.69 6.291,2.467c4.214,-0.333 6.457,-3.996 7.148,-7.318c0.841,-4.052 -0.307,-9.207 -4.771,-11.58c-6.762,-3.567 -8.63,-7.918 -9.005,-10.936c-0.445,-3.598 1.046,-7.325 3.989,-9.973c2.65,-2.37 7.289,-2.829 12.739,-1.251c9.273,2.684 20.209,10.922 23.731,23.275c4.538,15.905 19.96,13.188 20.615,13.056c0.243,-0.044 0.495,-0.051 0.737,-0.023c0.394,0.049 39.807,4.615 70.696,-21.055c15.005,-12.444 25.682,-30.053 31.744,-52.333c0.294,-1.082 1.31,-1.786 2.431,-1.732l23.091,1.555c0.641,0.042 1.239,0.349 1.651,0.844c0.413,0.494 0.604,1.137 0.528,1.776c-3.235,28.033 -13.653,52.469 -30.967,72.627c-39.365,45.897 -102.43,55.299 -106.835,55.905c-2.144,0.695 -20.466,6.601 -38.97,11.452c-18.98,4.976 -29.85,6.743 -36.138,6.743Z" style="fill:#181a35;fill-rule:nonzero;"/><path d="M382.869,821.139l-21.402,-16.478c2.629,-2.207 5.129,-4.566 7.501,-7.07c7.431,4.559 15.321,8.262 23.426,10.955c-2.865,4.338 -6.015,8.505 -9.443,12.499c-0.026,0.03 -0.056,0.063 -0.082,0.094Z" style="fill:#d68faa;fill-rule:nonzero;"/><path d="M384.739,822.578l-1.87,-1.439c0.026,-0.031 0.056,-0.064 0.082,-0.094c3.428,-3.994 6.578,-8.161 9.443,-12.499c0.775,0.259 1.555,0.507 2.335,0.747c-3.101,4.743 -6.451,9.165 -9.99,13.285Zm-23.272,-17.917l-1.913,-1.472c2.519,-2.09 4.988,-4.378 7.379,-6.877c0.674,0.433 1.355,0.86 2.035,1.279c-2.372,2.504 -4.872,4.863 -7.501,7.07Z" style="fill:#12122f;fill-rule:nonzero;"/><path d="M251.137,871.552c-18.647,-20.028 6.908,-38.11 6.908,-38.11c0,-0 -4.144,21.533 -6.908,38.11Z" style="fill:#d68faa;fill-rule:nonzero;"/><path d="M980.865,751.216c3.513,30.416 15.222,53.669 30.416,71.362c40.475,47.19 105.57,55.13 105.57,55.13c0,-0 77.158,25.209 80.88,16.232c3.746,-8.999 -26.221,-23.441 -26.221,-23.441c-0,-0 42.878,-3.134 40.687,-17.976c-2.003,-13.429 -40.122,-4.241 -40.122,-4.241c0,-0 24.761,-11.12 18.424,-32.607c-6.267,-21.298 -19.979,-10.036 -17.34,-3.392c2.641,6.644 1.013,18.07 -9.495,17.245c-10.531,-0.824 -13.452,-17.928 -3.298,-23.324c10.178,-5.371 9.002,-13.075 4.547,-17.08c-6.008,-5.372 -27.612,3.322 -32.63,20.921c-5.207,18.258 -23.324,14.724 -23.324,14.724c-0,0 -40.402,5.089 -72.493,-21.58c-13.547,-11.238 -25.609,-28.154 -32.512,-53.528l-23.089,1.555Z" style="fill:#f6aac1;fill-rule:nonzero;"/><path d="M983.509,753.4c3.439,26.052 13.377,48.802 29.56,67.645c39.425,45.964 103.427,54.246 104.07,54.326l0.445,0.099c44.177,14.428 74.912,20.273 78.069,17.413c1.633,-4.001 -11.664,-13.755 -25.166,-20.264c-0.961,-0.462 -1.491,-1.513 -1.291,-2.561c0.198,-1.048 1.077,-1.831 2.142,-1.908c8.363,-0.615 31.372,-3.829 37.304,-11.234c1.051,-1.312 1.439,-2.598 1.225,-4.049c-0.184,-1.226 -0.818,-2.168 -1.996,-2.96c-7.016,-4.733 -27.819,-1.126 -35.242,0.665c-1.185,0.292 -2.385,-0.375 -2.78,-1.527c-0.394,-1.15 0.153,-2.41 1.26,-2.912c0.933,-0.422 22.803,-10.559 17.13,-29.791c-1.802,-6.128 -4.495,-9.992 -7.386,-10.599c-2.332,-0.483 -3.998,1.246 -4.452,1.785c-1.056,1.251 -1.478,2.813 -1.051,3.885c1.762,4.437 2.071,11.37 -1.416,16.099c-1.649,2.236 -4.797,4.822 -10.454,4.365c-5.614,-0.44 -10.085,-4.78 -11.391,-11.056c-1.201,-5.775 0.552,-13.179 7.172,-16.697c3.941,-2.08 6.201,-4.625 6.54,-7.358c0.257,-2.07 -0.664,-4.273 -2.462,-5.892c-1.343,-1.199 -4.594,-1.291 -8.281,-0.224c-7.765,2.248 -17.498,9.478 -20.509,20.04c-5.277,18.509 -22.725,16.866 -25.63,16.454c-4.279,0.476 -42.643,3.88 -73.958,-22.146c-15.338,-12.72 -26.354,-30.498 -32.76,-52.858l-18.692,1.26Zm207.93,144.812c-6.288,-0 -17.154,-1.765 -36.141,-6.743c-18.504,-4.851 -36.823,-10.757 -38.97,-11.452c-4.405,-0.606 -67.47,-10.008 -106.835,-55.905c-17.312,-20.155 -27.73,-44.591 -30.967,-72.627c-0.073,-0.639 0.118,-1.282 0.53,-1.776c0.412,-0.495 1.011,-0.802 1.652,-0.844l23.088,-1.555c1.143,-0.049 2.139,0.65 2.431,1.732c6.062,22.28 16.744,39.889 31.744,52.333c30.889,25.67 70.302,21.109 70.696,21.055c0.247,-0.031 0.499,-0.024 0.744,0.026c0.646,0.12 16.073,2.843 20.608,-13.059c3.522,-12.353 14.456,-20.589 23.729,-23.275c5.449,-1.576 10.091,-1.121 12.736,1.247c2.948,2.652 4.439,6.379 3.994,9.977c-0.375,3.018 -2.243,7.369 -9.012,10.941c-4.457,2.368 -5.605,7.52 -4.764,11.575c0.693,3.322 2.931,6.985 7.146,7.318c2.806,0.223 4.926,-0.611 6.293,-2.467c2.287,-3.103 2.134,-8.274 0.829,-11.561c-1.079,-2.719 -0.382,-6.038 1.826,-8.658c2.318,-2.754 5.777,-4.043 9.023,-3.362c3.334,0.7 7.937,3.675 10.941,13.879c3.93,13.328 -3.086,22.999 -9.812,28.835c9.186,-1.303 21.413,-1.986 27.56,2.151c2.285,1.545 3.637,3.621 4.021,6.177c0.406,2.763 -0.336,5.35 -2.212,7.69c-5.958,7.433 -22.655,10.764 -32.79,12.14c9.857,5.485 23.701,14.866 20.381,22.843c-0.777,1.866 -2.681,3.365 -8.469,3.365Z" style="fill:#181a35;fill-rule:nonzero;"/><path d="M1013.15,821.139c-0.026,-0.031 -0.054,-0.064 -0.082,-0.094c-0.123,-0.144 -0.245,-0.288 -0.368,-0.434c4.239,-12.588 4.63,-25.852 0.585,-37.648c0.615,-0.325 1.218,-0.65 1.823,-0.978c5.4,8.757 11.895,16.336 19.446,22.674l-21.404,16.48Z" style="fill:#d68faa;fill-rule:nonzero;"/><path d="M1012.29,821.803c0.141,-0.396 0.28,-0.794 0.414,-1.192c0.123,0.146 0.245,0.29 0.368,0.434c0.028,0.03 0.056,0.063 0.082,0.094l-0.864,0.664Zm22.268,-17.144c-7.551,-6.338 -14.046,-13.917 -19.446,-22.674c0.693,-0.374 1.383,-0.754 2.064,-1.133c5.699,9.214 12.298,16.532 19.293,22.337l-1.911,1.47Z" style="fill:#12122f;fill-rule:nonzero;"/><path d="M1144.88,871.552c-2.761,-16.577 -6.905,-38.11 -6.905,-38.11c-0,-0 25.555,18.082 6.905,38.11Z" style="fill:#d68faa;fill-rule:nonzero;"/><path d="M948.739,919.964c-7.449,53.928 -338.841,49.881 -338.841,49.881l-1.913,-11.813l-3.854,-23.795c-0,-0 227.437,-11.771 237.693,-25.744c11.982,-16.36 -51.32,-52.601 -51.32,-52.601l87.95,-33.13c0,0 12.972,7.221 27.815,19.456c21.479,17.674 46.874,45.842 42.47,77.746Z" style="fill:#f6aac1;fill-rule:nonzero;"/><path d="M948.739,919.964l0.024,0l-0.024,0Zm-336.831,47.548c93.018,1.006 328.661,-5.626 334.497,-47.87c4.236,-30.692 -20.302,-58.054 -41.632,-75.603c-12.261,-10.107 -23.315,-16.805 -26.531,-18.681l-82.317,31.009c12.185,7.384 46.153,29.205 49.477,44.86c0.698,3.273 0.13,6.187 -1.679,8.656c-10.171,13.86 -193.302,24.283 -236.847,26.571l5.032,31.058Zm12.875,4.752c-9.299,0 -14.706,-0.061 -14.913,-0.063c-1.145,-0.015 -2.116,-0.851 -2.297,-1.979l-5.77,-35.606c-0.106,-0.662 0.073,-1.338 0.495,-1.857c0.419,-0.523 1.041,-0.841 1.71,-0.876c87.503,-4.526 228.927,-15.259 235.917,-24.785c0.994,-1.359 1.279,-2.959 0.869,-4.891c-2.935,-13.824 -38.143,-36.644 -51.461,-44.268c-0.792,-0.455 -1.251,-1.324 -1.178,-2.236c0.073,-0.907 0.664,-1.691 1.517,-2.014l87.95,-33.132c0.648,-0.245 1.372,-0.191 1.977,0.144c0.537,0.299 13.33,7.468 28.168,19.7c22.257,18.313 47.84,47.035 43.307,79.886c-3.265,23.623 -61.938,39.5 -174.388,47.19c-62.065,4.245 -124.223,4.787 -151.903,4.787Z" style="fill:#181a35;fill-rule:nonzero;"/><path d="M629.936,967.604c-1.188,0 -2.361,-0.002 -3.52,-0.002l0.582,-10.39c13.73,-0.629 32.816,-1.579 54.531,-2.867c3.602,0.016 7.15,0.023 10.639,0.023c49.096,0 86.019,-1.463 86.57,-1.486c1.143,-0.045 2.088,-0.907 2.238,-2.043l0.537,-4.029c44.634,-4.297 85.114,-9.897 103.514,-16.939c30.088,-11.502 25.866,-35.982 16.954,-54.585c2.386,-3.664 3.929,-7.593 4.599,-11.754c7.946,3.02 15.794,5.042 23.451,6.081c11.176,14.569 18.904,31.706 16.374,50.029c-5.49,39.733 -214.268,47.962 -316.469,47.962Z" style="fill:#d68faa;fill-rule:nonzero;"/><path d="M626.286,969.913l0.13,-2.311c1.159,-0 2.332,0.002 3.52,0.002c102.201,0 310.979,-8.229 316.469,-47.962c2.53,-18.323 -5.198,-35.46 -16.374,-50.029c1.072,0.143 2.144,0.271 3.211,0.377c10.734,14.576 18.025,31.657 15.497,49.974c-6.448,46.674 -255.55,49.921 -322.453,49.949Z" style="fill:#12122f;fill-rule:nonzero;"/><path d="M569.093,913.097c0,-0 -28.556,124.585 -9.841,118.912c0.917,-0.287 1.852,-0.643 2.757,-1.079c17.839,-8.576 35.829,-45.972 35.829,-45.972l25.428,-3.258l3.03,-54.06l-42.975,-10.927l-14.228,-3.616Z" style="fill:#aa73b1;fill-rule:nonzero;"/><path d="M570.855,915.973c-17.198,75.714 -17.318,109.889 -13.297,113.642c0.177,0.163 0.358,0.335 1.011,0.139c0.848,-0.266 1.668,-0.586 2.415,-0.947c16.89,-8.116 34.555,-44.506 34.731,-44.871c0.347,-0.719 1.032,-1.214 1.824,-1.315l23.484,-3.009l2.813,-50.167l-52.981,-13.472Zm-12.778,118.576c-1.397,-0 -2.679,-0.504 -3.735,-1.489c-11.888,-11.097 8.289,-102.317 12.456,-120.491c0.142,-0.617 0.528,-1.152 1.07,-1.484c0.542,-0.33 1.19,-0.431 1.807,-0.271l57.203,14.543c1.09,0.276 1.833,1.289 1.769,2.413l-3.027,54.062c-0.064,1.133 -0.929,2.061 -2.055,2.205l-24.172,3.098c-3.27,6.547 -19.585,37.853 -36.364,45.918c-0.95,0.457 -1.984,0.864 -3.072,1.206c-0.641,0.195 -1.273,0.29 -1.88,0.29Z" style="fill:#181a35;fill-rule:nonzero;"/><path d="M569.093,913.097c0,-0 -28.556,124.585 -9.841,118.912c0.917,-0.287 1.852,-0.643 2.757,-1.079l21.312,-114.217l-14.228,-3.616Z" style="fill:#875ba6;fill-rule:nonzero;"/><path d="M570.855,915.973c-17.198,75.714 -17.318,109.889 -13.297,113.642c0.177,0.163 0.358,0.335 1.011,0.139c0.462,-0.143 0.914,-0.304 1.352,-0.48l20.679,-110.822l-9.745,-2.479Zm-12.778,118.576c-1.397,-0 -2.679,-0.504 -3.735,-1.489c-11.888,-11.097 8.289,-102.317 12.456,-120.491c0.142,-0.617 0.528,-1.152 1.07,-1.484c0.542,-0.33 1.19,-0.431 1.807,-0.271l14.225,3.616c1.204,0.306 1.963,1.494 1.737,2.717l-21.312,114.214c-0.137,0.738 -0.618,1.364 -1.294,1.689c-0.952,0.46 -1.986,0.867 -3.074,1.209c-0.641,0.195 -1.273,0.29 -1.88,0.29Z" style="fill:#181a35;fill-rule:nonzero;"/><path d="M783.401,914.765l-2.568,19.271l-2.191,16.492c-0,0 -331.154,13.429 -340.107,-40.263c-4.123,-24.714 9.848,-47.708 26.128,-65.307c19.107,-20.639 41.37,-33.879 41.37,-33.879l88.844,30.651c-0,-0 -62.245,38.002 -49.805,54.022c10.649,13.688 238.329,19.013 238.329,19.013Z" style="fill:#f6aac1;fill-rule:nonzero;"/><path d="M506.319,813.67c-4.368,2.726 -23.456,15.097 -39.927,32.89c-20.292,21.936 -28.882,43.241 -25.534,63.321c7.014,42.058 242.761,42.009 335.71,38.374l4.149,-31.196c-43.59,-1.053 -226.945,-6.288 -237.504,-19.858c-1.88,-2.424 -2.526,-5.32 -1.925,-8.616c2.886,-15.74 36.214,-38.503 48.182,-46.228l-83.151,-28.687Zm185.849,140.698c-24.716,0 -52.512,-0.37 -80.317,-1.482c-112.624,-4.502 -171.718,-18.711 -175.639,-42.232c-3.602,-21.588 5.388,-44.231 26.722,-67.296c19.118,-20.65 40.974,-33.756 41.896,-34.303c0.596,-0.353 1.319,-0.424 1.972,-0.203l88.843,30.652c0.862,0.296 1.477,1.067 1.574,1.974c0.098,0.907 -0.337,1.788 -1.115,2.264c-13.094,7.996 -47.633,31.791 -50.179,45.696c-0.359,1.944 -0.026,3.536 1.008,4.87c3.85,4.95 71.47,14.242 236.522,18.103c0.671,0.017 1.3,0.316 1.736,0.822c0.436,0.512 0.634,1.181 0.544,1.845l-4.759,35.761c-0.15,1.136 -1.095,1.998 -2.238,2.043c-0.551,0.023 -37.474,1.486 -86.57,1.486Z" style="fill:#181a35;fill-rule:nonzero;"/><path d="M695.16,949.725c-107.116,-0 -248.885,-7.374 -254.302,-39.844c-1.877,-11.271 0.005,-22.931 5.605,-34.868c3.887,3.583 8.18,6.926 12.871,10.017c-0.945,14.39 5.098,29.565 31.386,35.436c50.903,11.408 253.466,13.311 287.74,13.556l-1.892,14.233c-21.189,0.827 -49.776,1.47 -81.408,1.47Z" style="fill:#d68faa;fill-rule:nonzero;"/><path d="M692.411,952.022c-98.783,-0 -247.908,-5.963 -253.876,-41.757c-2.163,-12.956 0.65,-25.442 6.163,-36.925c0.578,0.561 1.169,1.121 1.765,1.673c-5.6,11.937 -7.482,23.597 -5.605,34.868c5.417,32.47 147.186,39.844 254.302,39.844c31.632,-0 60.219,-0.643 81.408,-1.47l1.892,-14.233c0.912,0.005 1.706,0.012 2.373,0.014l-2.191,16.492c-0,0 -36.829,1.494 -86.231,1.494Z" style="fill:#12122f;fill-rule:nonzero;"/><path d="M1010.37,781.823c0.141,0.353 0.259,0.683 0.377,1.036c15.69,43.208 -32.065,107.715 -106.183,77.346c-2.686,50.889 -141.664,57.439 -191.893,11.427c-2.639,-2.403 -5.019,-4.948 -7.139,-7.657l-0.071,0.306c-6.078,34.209 -79.113,38.826 -95.887,15.125c-33.667,49.641 -191.822,29.756 -186.922,-68.134c-65.472,0 -129.931,-75.249 -90.068,-134.761c-33.151,-36.588 -46.651,-91.27 -15.882,-127.339c10.275,-12.063 25.494,-22.029 46.58,-28.555c-24.479,-71.904 31.476,-137.682 111.343,-96.358c6.667,-65.19 175.297,-107.529 217.879,16.821c-0,0 55.223,-93.461 153.655,-61.278c18.872,-27.447 107.291,-22.665 118.152,57.556c0.73,-0.071 1.484,-0.118 2.214,-0.142c63.305,-3.039 113.181,94.828 68.983,152.949l-0.118,0.165c0.683,0.212 1.39,0.518 2.144,0.919l0.071,0.047l0.777,0.424c1.037,0.566 2.12,1.296 3.251,2.191c1.343,0.99 2.026,1.649 2.026,1.649c5.301,4.595 11.215,11.78 16.704,20.827c10.319,17.01 19.131,40.57 19.248,65.637c0.142,34.845 -16.515,72.634 -69.241,99.799Z" style="fill:#f16e96;fill-rule:nonzero;"/><path d="M426.911,413.789c-16.174,-0 -30.802,5.131 -42.685,15.361c-23.298,20.054 -30.642,55.659 -18.709,90.709c0.205,0.603 0.158,1.26 -0.132,1.828c-0.287,0.568 -0.794,0.992 -1.402,1.18c-19.625,6.074 -34.929,15.439 -45.482,27.834c-30.792,36.098 -15.344,89.818 15.832,124.227c0.726,0.803 0.813,1.995 0.213,2.893c-15.123,22.575 -15.875,49.204 -2.116,74.981c17.634,33.04 54.736,56.114 90.226,56.114c0.646,0 1.263,0.264 1.706,0.733c0.445,0.466 0.678,1.095 0.645,1.741c-0.909,18.207 3.77,62.831 66.728,83.903c46.045,15.405 99.115,7.527 115.895,-17.208c0.433,-0.641 1.152,-1.027 1.924,-1.035c0.709,0.033 1.501,0.363 1.949,0.995c8.349,11.801 34.616,17.04 58.545,11.69c18.864,-4.22 30.927,-13.646 33.099,-25.866l0.061,-0.262l0.045,-0.216c0.224,-0.87 0.921,-1.536 1.798,-1.72c0.883,-0.189 1.786,0.146 2.342,0.853c2.005,2.565 4.318,5.046 6.867,7.367c29.311,26.848 107.06,41.948 159.661,20.428c12.447,-5.089 27.461,-14.47 28.295,-30.239c0.04,-0.76 0.448,-1.458 1.091,-1.865c0.646,-0.408 1.451,-0.479 2.154,-0.191c32.62,13.37 63.714,9.134 85.316,-11.608c17.983,-17.267 25.119,-42.485 17.759,-62.751c-0.125,-0.375 -0.228,-0.664 -0.351,-0.975c-0.448,-1.124 0.033,-2.406 1.11,-2.962c31.122,-16.032 68.174,-45.998 67.964,-97.694c-0.136,-29.162 -11.904,-52.882 -18.906,-64.427c-5.117,-8.431 -10.882,-15.629 -16.233,-20.265c-0.094,-0.088 -0.704,-0.667 -1.88,-1.534c-1.088,-0.858 -2.068,-1.52 -2.982,-2.019l-0.778,-0.424l-0.146,-0.088c-0.598,-0.31 -1.136,-0.541 -1.64,-0.699c-0.794,-0.245 -1.397,-0.891 -1.59,-1.699c-0.17,-0.707 -0.005,-1.446 0.438,-2.007l0.095,-0.134c20.357,-26.771 21.705,-66.514 3.432,-101.248c-16.237,-30.863 -43.215,-49.235 -70.427,-47.92c-0.718,0.024 -1.418,0.066 -2.099,0.132c-1.26,0.137 -2.393,-0.773 -2.563,-2.029c-6.868,-50.73 -43.571,-64.774 -59.033,-68.459c-22.851,-5.44 -46.424,-0.316 -54.842,11.921c-0.592,0.862 -1.683,1.228 -2.672,0.907c-95.532,-31.242 -150.353,59.319 -150.897,60.237c-0.466,0.792 -1.352,1.256 -2.269,1.145c-0.914,-0.094 -1.691,-0.709 -1.988,-1.581c-22.306,-65.137 -80.218,-82.628 -126.984,-77.27c-46.259,5.296 -83.37,31.058 -86.322,59.926c-0.08,0.775 -0.537,1.461 -1.223,1.83c-0.69,0.373 -1.515,0.38 -2.205,0.022c-16.2,-8.383 -32.046,-12.562 -46.634,-12.562Zm113.882,494.245c-16.39,-0 -33.808,-2.67 -50.554,-8.272c-45.555,-15.248 -70.947,-46.568 -70.026,-86.169c-36.397,-1.025 -73.925,-24.823 -91.941,-58.572c-14.308,-26.806 -13.809,-54.528 1.354,-78.286c-31.734,-35.985 -46.86,-91.404 -14.71,-129.092c10.722,-12.593 25.986,-22.191 45.39,-28.55c-11.472,-36.14 -3.407,-72.639 20.845,-93.515c23.477,-20.207 56.725,-21.936 91.614,-4.893c5.506,-29.638 43.331,-55.453 89.993,-60.796c47.513,-5.43 106.086,11.846 130.369,75.961c12.192,-17.649 65.991,-85.917 152.151,-58.807c10.302,-12.949 34.58,-18.174 58.762,-12.411c16.181,3.854 54.288,18.386 62.294,70.233l0.122,-0.005c28.986,-1.375 57.684,17.934 74.783,50.437c18.629,35.41 17.677,75.918 -2.229,104.079l0.505,0.276c1.145,0.624 2.353,1.437 3.583,2.412c1.364,1.004 2.12,1.722 2.203,1.8c5.616,4.865 11.716,12.461 17.081,21.3c7.256,11.962 19.448,36.548 19.589,66.848c0.12,29.539 -11.756,70.884 -68.685,100.951c7.47,21.778 -0.186,48.551 -19.244,66.85c-22.358,21.472 -54.097,26.406 -87.462,13.719c-2.09,12.988 -12.69,23.71 -30.875,31.148c-44.262,18.103 -127.564,12.637 -164.623,-21.312c-1.555,-1.416 -3.032,-2.891 -4.417,-4.413c-4.229,12.077 -16.919,21.202 -35.587,25.379c-21.527,4.813 -49.381,1.823 -61.404,-11.09c-12.764,15.993 -39.125,24.787 -68.881,24.79Z" style="fill:#181a35;fill-rule:nonzero;"/><path d="M698.551,699.736c-11.775,0 -23.833,-6.088 -26.093,-18.944c-0.424,-2.415 0.783,-3.221 3.089,-3.221c4.502,0 13.196,3.065 22.137,3.221c0.219,0.002 0.438,0.005 0.657,0.005c4.274,-0 8.463,-0.698 12.14,-1.393c3.678,-0.697 6.844,-1.394 9.08,-1.394c2.231,-0 3.532,0.697 3.478,2.782c-0.316,12.373 -12.251,18.944 -24.488,18.944Z" style="fill:#db5e85;fill-rule:nonzero;"/><path d="M538.614,624.503c-3.03,0 -5.72,-0.756 -7.987,-2.506c-7.902,-6.107 -11.992,-19.416 -9.145,-33.099c1.884,4.2 4.518,7.713 7.706,10.175c2.709,2.095 5.859,2.987 9.358,2.987c9.598,0 21.79,-6.716 34.5,-13.716c3.409,-1.878 6.88,-3.786 10.364,-5.609l0.003,-0l4.276,-2.234c15.575,-8.114 31.496,-16.409 40.136,-26.38c2.401,2.21 3.857,4.809 4.125,7.759c0.803,8.837 -5.265,16.414 -14.576,23.368c-4.898,-2.235 -10.209,-3.392 -15.639,-3.392c-1.576,-0 -3.166,0.099 -4.754,0.294c-10.091,1.254 -19.086,6.376 -25.329,14.421c-4.312,5.553 -6.955,12.044 -7.763,18.86c-9.54,5.074 -18.306,9.072 -25.275,9.072Z" style="fill:#db5e85;fill-rule:nonzero;"/><path d="M852.981,622.842c-5.399,0 -11.878,-2.4 -18.963,-5.842c-2.688,-16.094 -15.565,-29.276 -32.514,-31.528c-1.685,-0.224 -3.357,-0.332 -5.014,-0.332c-5.371,-0 -10.55,1.145 -15.264,3.225c-13.109,-8.264 -22.57,-17.245 -21.581,-28.146c0.269,-2.948 1.725,-5.546 4.123,-7.756c8.63,9.968 24.582,18.273 40.132,26.368l4.278,2.231c3.485,1.821 6.95,3.732 10.362,5.607c12.727,7.009 24.935,13.731 34.531,13.731c3.487,-0 6.63,-0.889 9.325,-2.974c3.197,-2.459 5.833,-5.967 7.718,-10.189c2.846,13.683 -1.242,26.992 -9.146,33.099c-2.266,1.75 -4.957,2.506 -7.987,2.506Z" style="fill:#db5e85;fill-rule:nonzero;"/><path d="M595.671,460.208c-0,0 -20.123,-24.153 -49.141,-24.153c-3.774,-0 -7.697,0.407 -11.747,1.331c-13.485,3.072 -19.552,5.068 -21.908,6.359l-4.566,-5.219l-6.024,-1.27c0,0 12.534,-18.812 43.873,-19.335c0.188,-0.002 0.379,-0.005 0.568,-0.005c30.99,0 48.945,42.292 48.945,42.292Zm-80.751,-14.126c0,-0 -5.836,-0.257 -2.045,-2.337l2.045,2.337Z" style="fill:#db5e85;fill-rule:nonzero;"/><path d="M841.708,498.038c-11.563,-0 -21.701,-1.758 -21.135,-1.847c8.187,-1.313 21.076,-12.459 29.115,-19.538c8.036,-7.077 4.888,-14.857 6.057,-21.517c1.169,-6.658 13.299,-7.874 13.299,-7.874l13.3,-14.847c-0,-0 -0.347,50.142 -14.056,59.936c-6.243,4.459 -16.911,5.687 -26.58,5.687Z" style="fill:#db5e85;fill-rule:nonzero;"/><path d="M965.969,716.447c-3.04,0 -6.976,-0.551 -12.515,-1.651c-22.782,-4.524 -46.083,-12.534 -56.096,-28.06c-10.013,-15.549 -10.814,-30.604 -9.965,-34.797c0.848,-4.194 4.947,-15.196 4.947,-15.196c0,-0 13.757,51.037 53.374,51.037c3.358,-0 6.901,-0.368 10.638,-1.162c42.963,-9.122 92.657,-58.529 102.319,-68.483c7.032,11.728 18.454,35.172 18.588,63.899l0,0.666c-31.489,8.731 -76.637,8.972 -87.783,17.842c-13.28,10.59 -14.058,15.905 -23.507,15.905Z" style="fill:#db5e85;fill-rule:nonzero;"/><path d="M1077.26,682.7l0,-0.666c-0.134,-28.727 -11.556,-52.171 -18.588,-63.899c1.093,-1.128 1.673,-1.748 1.673,-1.748l0.023,0c10.319,17.01 19.131,40.57 19.248,65.637c-0.775,0.231 -1.562,0.457 -2.356,0.676Z" style="fill:#12122f;fill-rule:nonzero;"/><path d="M677.863,506.147l-0.21,-0.009c-1.295,-0.113 -2.254,-1.256 -2.139,-2.552c4.038,-45.932 14.558,-63.062 15.005,-63.769c0.693,-1.1 2.144,-1.432 3.249,-0.735c1.098,0.693 1.43,2.144 0.74,3.244c-0.118,0.187 -10.383,17.128 -14.301,61.672c-0.108,1.225 -1.138,2.149 -2.344,2.149Z" style="fill:#181a35;fill-rule:nonzero;"/><path d="M806.487,500.156c-1.812,-0 -2.915,-0.087 -3.047,-0.097c-1.295,-0.108 -2.257,-1.246 -2.151,-2.542c0.109,-1.298 1.24,-2.269 2.542,-2.153c0.095,0.005 9.474,0.728 20.059,-2.486c13.919,-4.229 23.289,-12.96 27.845,-25.953c10.899,-31.068 -28.62,-56.265 -29.021,-56.517c-1.102,-0.69 -1.437,-2.144 -0.746,-3.247c0.69,-1.102 2.141,-1.437 3.246,-0.749c0.436,0.276 10.835,6.835 19.927,17.66c12.281,14.631 16.103,29.987 11.042,44.413c-5.03,14.336 -15.778,24.346 -31.08,28.95c-7.755,2.33 -14.779,2.721 -18.616,2.721Z" style="fill:#181a35;fill-rule:nonzero;"/><path d="M925.043,518.316c-0.801,-0 -1.583,-0.41 -2.024,-1.148c-0.669,-1.119 -0.303,-2.565 0.813,-3.23c44.387,-26.502 38.214,-75.777 38.146,-76.272c-0.175,-1.288 0.725,-2.476 2.016,-2.652c1.287,-0.184 2.476,0.725 2.653,2.014c0.073,0.528 6.63,52.875 -40.398,80.953c-0.379,0.226 -0.796,0.335 -1.206,0.335Z" style="fill:#181a35;fill-rule:nonzero;"/><path d="M855.745,453.798c-1.114,-0 -2.104,-0.792 -2.316,-1.928c-0.236,-1.279 0.608,-2.509 1.887,-2.747c11.523,-2.139 19.121,-6.443 22.577,-12.79c4.128,-7.582 0.853,-15.761 0.82,-15.844c-0.492,-1.201 0.078,-2.577 1.277,-3.074c1.202,-0.498 2.573,0.068 3.075,1.262c0.172,0.415 4.182,10.261 -1.002,19.849c-4.153,7.685 -12.865,12.812 -25.887,15.232l-0.431,0.04Z" style="fill:#181a35;fill-rule:nonzero;"/><path d="M973.022,519.044c-24.688,-0 -30.347,-17.456 -30.41,-17.668c-0.382,-1.244 0.32,-2.561 1.566,-2.94c1.244,-0.377 2.554,0.32 2.938,1.557c0.285,0.903 7.092,20.924 41.786,12.152c1.26,-0.315 2.544,0.446 2.86,1.706c0.32,1.263 -0.443,2.542 -1.706,2.863c-6.495,1.642 -12.14,2.33 -17.034,2.33Z" style="fill:#181a35;fill-rule:nonzero;"/><path d="M977.525,617.153l-0.535,-0.061c-1.268,-0.295 -2.057,-1.56 -1.763,-2.828c3.051,-13.113 9.45,-22.207 19.018,-27.032c18.216,-9.188 41.123,0.528 42.089,0.943c1.194,0.515 1.743,1.901 1.227,3.095c-0.515,1.195 -1.901,1.744 -3.095,1.23c-0.217,-0.094 -21.887,-9.254 -38.12,-1.051c-8.25,4.168 -13.813,12.204 -16.527,23.883c-0.254,1.088 -1.222,1.821 -2.294,1.821Z" style="fill:#181a35;fill-rule:nonzero;"/><path d="M985.45,596.564c-0.537,0 -1.079,-0.184 -1.522,-0.561c-0.582,-0.485 -13.818,-11.266 -35.467,-3.449c-1.227,0.441 -2.575,-0.191 -3.015,-1.416c-0.443,-1.222 0.191,-2.575 1.413,-3.015c24.352,-8.8 39.489,3.753 40.12,4.292c0.992,0.841 1.11,2.33 0.266,3.32c-0.466,0.549 -1.128,0.829 -1.795,0.829Z" style="fill:#181a35;fill-rule:nonzero;"/><path d="M1006.47,631.208c-0.733,0 -1.453,-0.336 -1.913,-0.975c-0.08,-0.111 -8.085,-10.99 -20.504,-12.414c-7.972,-0.916 -16.148,2.22 -24.299,9.316c-0.983,0.855 -2.472,0.754 -3.327,-0.229c-0.853,-0.982 -0.749,-2.471 0.231,-3.324c9.212,-8.017 18.626,-11.516 27.982,-10.439c14.501,1.687 23.369,13.822 23.741,14.338c0.756,1.056 0.516,2.524 -0.537,3.285c-0.417,0.299 -0.898,0.442 -1.374,0.442Z" style="fill:#181a35;fill-rule:nonzero;"/><path d="M961.893,717.307c-19.616,-0 -52.611,-5.021 -70.82,-35.745c-20.309,-34.262 13.41,-65.439 13.754,-65.75c0.961,-0.871 2.45,-0.801 3.326,0.163c0.874,0.963 0.801,2.452 -0.16,3.326c-0.08,0.073 -8.036,7.379 -13.53,18.462c-7.214,14.555 -6.993,28.483 0.662,41.399c25.209,42.527 81.205,32.441 81.768,32.333c1.279,-0.231 2.512,0.598 2.754,1.873c0.243,1.279 -0.593,2.514 -1.873,2.756c-0.191,0.038 -6.509,1.183 -15.881,1.183Z" style="fill:#181a35;fill-rule:nonzero;"/><path d="M918.706,624.649c-4.173,0 -14.881,-1.552 -17.696,-17.028c-0.231,-1.28 0.617,-2.507 1.899,-2.738c1.277,-0.226 2.507,0.617 2.738,1.897c2.612,14.373 12.851,13.294 14.003,13.117c1.287,-0.19 2.484,0.688 2.682,1.97c0.197,1.279 -0.667,2.479 -1.946,2.684c-0.033,0.004 -0.663,0.098 -1.68,0.098Z" style="fill:#181a35;fill-rule:nonzero;"/><path d="M973.663,736.499c-1.27,-0 -2.316,-1.009 -2.353,-2.286c-0.648,-21.312 10.401,-36.371 30.311,-41.323c0.217,-0.054 0.377,-0.092 0.474,-0.123c1.227,-0.365 2.551,0.295 2.952,1.508c0.4,1.213 -0.205,2.512 -1.409,2.947c-0.139,0.05 -0.438,0.132 -0.879,0.238c-10.324,2.568 -27.524,10.739 -26.74,36.612c0.038,1.298 -0.982,2.384 -2.283,2.427l-0.073,-0Z" style="fill:#181a35;fill-rule:nonzero;"/><path d="M973.795,790.29c-11.959,-0 -24.601,-2.321 -34.324,-9.796c-1.032,-0.794 -1.225,-2.274 -0.433,-3.306c0.794,-1.029 2.273,-1.225 3.305,-0.431c23.112,17.769 66.81,3.002 67.251,2.849c1.225,-0.422 2.57,0.226 2.994,1.458c0.424,1.227 -0.226,2.57 -1.456,2.994c-1.159,0.401 -18.39,6.232 -37.337,6.232Z" style="fill:#181a35;fill-rule:nonzero;"/><path d="M904.561,862.571c-0.342,-0 -0.686,-0.073 -1.014,-0.229c-0.379,-0.181 -37.898,-18.61 -39.474,-63.825c-0.044,-1.303 0.973,-2.394 2.274,-2.436c1.253,-0.12 2.391,0.971 2.436,2.271c1.472,42.294 36.444,59.57 36.795,59.738c1.174,0.563 1.668,1.969 1.108,3.143c-0.406,0.845 -1.247,1.338 -2.125,1.338Z" style="fill:#181a35;fill-rule:nonzero;"/><path d="M865.308,797.669c-7.282,-0 -15.434,-2.446 -23.831,-9.481c-0.996,-0.834 -1.128,-2.32 -0.292,-3.319c0.834,-0.997 2.321,-1.131 3.32,-0.292c24.005,20.105 45.222,-1.979 46.113,-2.931c0.89,-0.943 2.379,-0.999 3.329,-0.108c0.949,0.888 1.001,2.374 0.115,3.324c-0.172,0.186 -12.218,12.807 -28.754,12.807Z" style="fill:#181a35;fill-rule:nonzero;"/><path d="M819.791,857.143l-0.507,-0.057c-1.272,-0.278 -2.075,-1.534 -1.795,-2.806c2.898,-13.203 13.978,-21.295 32.041,-23.409c13.17,-1.538 25.31,0.603 25.821,0.693c1.282,0.231 2.133,1.456 1.902,2.735c-0.231,1.28 -1.463,2.132 -2.736,1.904c-0.464,-0.087 -46.478,-8.01 -52.427,19.09c-0.243,1.098 -1.216,1.85 -2.299,1.85Z" style="fill:#181a35;fill-rule:nonzero;"/><path d="M705.536,866.331c-0.622,-0 -1.241,-0.245 -1.703,-0.731c-0.363,-0.381 -35.754,-38.616 7.056,-88.511c0.85,-0.984 2.337,-1.1 3.322,-0.252c0.989,0.846 1.105,2.335 0.254,3.322c-39.969,46.582 -8.575,80.76 -7.221,82.195c0.893,0.942 0.858,2.434 -0.085,3.329c-0.457,0.431 -1.043,0.648 -1.623,0.648Z" style="fill:#181a35;fill-rule:nonzero;"/><path d="M611.006,835.032c-1.152,-0 -2.158,-0.843 -2.33,-2.017c-0.029,-0.202 -3.101,-20.584 -14.504,-40.317c-15.097,-26.114 -36.936,-38.815 -64.923,-37.785c-1.373,0.085 -2.394,-0.966 -2.443,-2.267c-0.047,-1.298 0.968,-2.391 2.269,-2.44c71.133,-2.703 84.14,81.283 84.263,82.131c0.186,1.288 -0.704,2.483 -1.991,2.669l-0.341,0.026Z" style="fill:#181a35;fill-rule:nonzero;"/><path d="M625.662,846.086c-0.747,0 -1.48,-0.353 -1.937,-1.011c-0.471,-0.671 -11.622,-16.211 -29.767,-5.513c-1.122,0.66 -2.566,0.288 -3.225,-0.834c-0.662,-1.119 -0.29,-2.563 0.831,-3.225c21.962,-12.955 35.898,6.691 36.035,6.889c0.739,1.07 0.471,2.537 -0.599,3.277c-0.41,0.283 -0.876,0.417 -1.338,0.417Z" style="fill:#181a35;fill-rule:nonzero;"/><path d="M422.647,813.621l-0.099,-0.002c-1.298,-0.052 -2.309,-1.15 -2.255,-2.451c0.071,-1.722 1.906,-42.525 15.483,-73.228c0.526,-1.192 1.918,-1.724 3.108,-1.203c1.19,0.527 1.727,1.92 1.201,3.109c-13.209,29.872 -15.068,71.103 -15.085,71.518c-0.052,1.265 -1.095,2.257 -2.353,2.257Z" style="fill:#181a35;fill-rule:nonzero;"/><path d="M453.653,742.747c-8.389,-0 -22.058,-2.502 -29.798,-17.244c-0.605,-1.152 -0.16,-2.577 0.992,-3.183c1.152,-0.598 2.575,-0.16 3.181,0.992c9.987,19.02 31.567,14.233 31.784,14.186c1.263,-0.293 2.535,0.492 2.832,1.759c0.294,1.266 -0.493,2.533 -1.762,2.828c-0.085,0.021 -2.981,0.662 -7.229,0.662Z" style="fill:#181a35;fill-rule:nonzero;"/><path d="M332.597,678.86c-0.563,0 -1.128,-0.2 -1.578,-0.605c-0.964,-0.872 -1.042,-2.356 -0.175,-3.322c0.997,-1.108 24.985,-27.011 76.282,-16.433c1.274,0.264 2.096,1.51 1.833,2.785c-0.264,1.274 -1.504,2.099 -2.783,1.83c-25.374,-5.232 -43.55,-0.881 -54.328,3.69c-11.672,4.947 -17.446,11.219 -17.503,11.282c-0.466,0.514 -1.105,0.773 -1.748,0.773Z" style="fill:#181a35;fill-rule:nonzero;"/><path d="M400.399,678.862l-0.497,-0.051c-1.272,-0.274 -2.082,-1.527 -1.807,-2.799c4.983,-23.202 23.473,-25.784 24.257,-25.883c1.282,-0.165 2.469,0.752 2.632,2.045c0.162,1.286 -0.749,2.462 -2.036,2.629c-0.648,0.088 -15.985,2.363 -20.247,22.198c-0.238,1.108 -1.213,1.861 -2.302,1.861Z" style="fill:#181a35;fill-rule:nonzero;"/><path d="M484.107,554.166c-12.421,0.003 -29.693,-5.162 -45.751,-27.798c-0.754,-1.062 -0.504,-2.532 0.559,-3.284c1.062,-0.754 2.532,-0.504 3.284,0.558c11.059,15.587 23.8,24.222 37.872,25.664c9.888,1.011 17.111,-1.934 19.09,-2.863l2.043,4.248l-0.976,-2.146l0.978,2.146c-1.498,0.7 -7.996,3.475 -17.099,3.475Z" style="fill:#181a35;fill-rule:nonzero;"/><path d="M399.455,618.734c-2.528,-0 -5.108,-0.05 -7.744,-0.144c-1.301,-0.05 -2.316,-1.14 -2.269,-2.441c0.047,-1.3 1.109,-2.311 2.441,-2.269c35.289,1.284 60.305,-6.193 74.365,-22.235c15.3,-17.451 11.834,-39.166 11.797,-39.382c-0.217,-1.282 0.648,-2.498 1.929,-2.717c1.296,-0.224 2.5,0.648 2.717,1.93c0.165,0.977 3.861,24.158 -12.899,43.276c-13.964,15.929 -37.604,23.979 -70.337,23.982Z" style="fill:#181a35;fill-rule:nonzero;"/><path d="M386.061,627.974c-0.547,-0 -1.096,-0.189 -1.541,-0.573c-0.985,-0.85 -1.093,-2.339 -0.243,-3.322c8.576,-9.93 2.175,-20.056 1.899,-20.482c-0.706,-1.089 -0.402,-2.547 0.684,-3.259c1.083,-0.707 2.539,-0.412 3.253,0.672c3.044,4.61 6.489,16.008 -2.269,26.149c-0.466,0.539 -1.123,0.815 -1.783,0.815Z" style="fill:#181a35;fill-rule:nonzero;"/><path d="M601.627,471.307c-0.867,0 -1.701,-0.481 -2.114,-1.307c-0.947,-1.902 -23.875,-46.286 -84.143,-24.366c-1.223,0.448 -2.575,-0.186 -3.02,-1.409c-0.443,-1.222 0.186,-2.575 1.409,-3.02c64.31,-23.378 89.726,26.198 89.976,26.702c0.577,1.167 0.099,2.576 -1.065,3.153c-0.334,0.167 -0.692,0.247 -1.043,0.247Z" style="fill:#181a35;fill-rule:nonzero;"/><path d="M517.17,455.461c-1.258,-0 -2.299,-0.994 -2.351,-2.259c-0.026,-0.512 -0.761,-12.171 -15.599,-13.599c-1.293,-0.125 -2.243,-1.277 -2.118,-2.573c0.123,-1.291 1.275,-2.245 2.57,-2.118c19.037,1.833 19.847,17.943 19.854,18.106c0.047,1.3 -0.968,2.393 -2.269,2.441l-0.087,0.002Z" style="fill:#181a35;fill-rule:nonzero;"/><path d="M380.588,549.388c-0.645,0 -1.289,-0.261 -1.753,-0.782c-8.755,-9.756 -17.288,-26.21 -17.646,-26.907c-0.598,-1.155 -0.144,-2.575 1.013,-3.174c1.152,-0.598 2.575,-0.143 3.174,1.013c0.084,0.165 8.618,16.619 16.965,25.921c0.869,0.97 0.789,2.459 -0.179,3.329c-0.45,0.402 -1.013,0.6 -1.574,0.6Z" style="fill:#181a35;fill-rule:nonzero;"/><path d="M637.121,615.628c2.444,19.633 -12.227,22.907 -31.793,25.341c-19.569,2.434 -36.626,3.103 -39.067,-16.527c-2.441,-19.632 11.443,-37.521 31.009,-39.955c19.569,-2.433 37.411,11.509 39.851,31.141Z" style="fill:#fff;fill-rule:nonzero;"/><path d="M601.73,586.568c-1.383,-0 -2.775,0.085 -4.167,0.257c-8.84,1.1 -16.721,5.588 -22.189,12.635c-5.473,7.049 -7.878,15.817 -6.776,24.69c0.999,8.017 4.625,12.644 11.415,14.562c6.875,1.944 16.52,0.978 25.023,-0.08c22.181,-2.759 31.739,-6.693 29.748,-22.711c-1.102,-8.875 -5.583,-16.787 -12.616,-22.281c-5.92,-4.627 -13.054,-7.072 -20.438,-7.072Zm-11.907,57.987c-3.953,-0 -7.72,-0.356 -11.092,-1.308c-8.721,-2.464 -13.565,-8.521 -14.807,-18.515c-1.258,-10.119 1.487,-20.12 7.728,-28.161c6.243,-8.045 15.238,-13.167 25.329,-14.421c10.093,-1.251 20.063,1.506 28.087,7.777c8.022,6.267 13.132,15.293 14.391,25.412c2.911,23.397 -17.468,25.932 -33.841,27.97c-5.278,0.655 -10.694,1.244 -15.795,1.246Z" style="fill:#181a35;fill-rule:nonzero;"/><path d="M582.918,617.407l-0.005,0.212c0.099,12.984 10.128,23.437 22.415,23.35c12.298,-0.085 22.176,-10.677 22.092,-23.661c-0.01,-1.847 -0.236,-3.659 -0.639,-5.378c-2.363,-10.383 -11.245,-18.054 -21.774,-17.986c-12.218,0.092 -22.061,10.569 -22.089,23.463Z" style="fill:#aa73b1;fill-rule:nonzero;"/><path d="M582.918,617.407l0.023,0l-0.023,0Zm2.353,0.104l-0.011,0.313c0.096,11.394 9.014,20.789 19.917,20.789l0.134,0c10.967,-0.075 19.828,-9.626 19.753,-21.288c-0.01,-1.635 -0.203,-3.266 -0.578,-4.856c-2.179,-9.589 -10.135,-16.298 -19.462,-16.169c-10.866,0.083 -19.724,9.554 -19.75,21.112l-0.003,0.099Zm19.906,25.814c-13.486,0.003 -24.514,-11.488 -24.62,-25.689l0.005,-0.234c0.028,-14.133 10.988,-25.712 24.429,-25.814l0.158,0c11.445,0 21.269,8.128 23.929,19.821c0.45,1.915 0.686,3.901 0.698,5.888c0.091,14.255 -10.869,25.934 -24.434,26.028l-0.165,0Z" style="fill:#181a35;fill-rule:nonzero;"/><path d="M593.701,618.145c-2.756,-0 -5.574,-0.139 -8.437,-0.448l0.007,-0.186l0.003,-0.099c0.026,-11.558 8.884,-21.029 19.75,-21.112c0.087,-0.002 0.174,-0.002 0.264,-0.002c9.211,-0 17.04,6.672 19.198,16.171c0.022,0.087 0.04,0.174 0.062,0.259c-8.051,2.78 -18.85,5.417 -30.847,5.417Z" style="fill:#9963a9;fill-rule:nonzero;"/><path d="M585.264,617.697c-0.777,-0.082 -1.559,-0.179 -2.344,-0.29l0.021,0l-0.023,0c0.028,-12.894 9.871,-23.371 22.089,-23.463l0.142,0c10.467,0 19.281,7.65 21.632,17.986c-0.718,0.266 -1.463,0.534 -2.233,0.798c-0.022,-0.085 -0.04,-0.172 -0.062,-0.259c-2.158,-9.499 -9.987,-16.171 -19.198,-16.171c-0.09,-0 -0.177,-0 -0.264,0.002c-10.866,0.083 -19.724,9.554 -19.75,21.112l-0.003,0.099l-0.007,0.186Z" style="fill:#12122f;fill-rule:nonzero;"/><path d="M591.091,617.558c0.059,8.465 6.408,15.283 14.183,15.229c7.777,-0.052 14.032,-6.96 13.973,-15.425c-0.059,-8.464 -6.408,-15.285 -14.185,-15.231c-7.775,0.054 -14.03,6.96 -13.971,15.427Z" style="fill:#181a35;fill-rule:nonzero;"/><path d="M582.004,603.889c0.249,4.273 3.913,7.534 8.187,7.287c4.271,-0.248 7.534,-3.914 7.287,-8.187c-0.25,-4.272 -3.914,-7.535 -8.187,-7.285c-4.274,0.248 -7.535,3.913 -7.287,8.185Z" style="fill:#fff;fill-rule:nonzero;"/><path d="M606.346,624.958c0.108,1.847 1.691,3.256 3.536,3.148c1.845,-0.106 3.253,-1.69 3.147,-3.534c-0.108,-1.847 -1.691,-3.256 -3.536,-3.148c-1.845,0.106 -3.253,1.689 -3.147,3.534Z" style="fill:#fff;fill-rule:nonzero;"/><path d="M761.083,618.611c-2.608,19.611 11.57,21.371 31.115,23.97c19.547,2.596 37.061,5.048 39.667,-14.563c2.606,-19.611 -11.127,-37.615 -30.672,-40.211c-19.548,-2.599 -37.505,11.193 -40.11,30.804Z" style="fill:#fff;fill-rule:nonzero;"/><path d="M763.417,618.922c-1.368,10.293 2.481,13.933 5.989,15.955c5.19,2.989 13.325,4.068 22.747,5.322l0.711,0.094c9.5,1.263 18.474,2.455 25.15,1.004c6.915,-1.503 10.468,-5.692 11.516,-13.589c2.432,-18.292 -10.42,-35.142 -28.648,-37.566c-18.228,-2.429 -35.031,10.491 -37.465,28.78Zm47.386,27.753c-5.69,0 -12.004,-0.841 -18.561,-1.712l-0.709,-0.095c-9.918,-1.317 -18.482,-2.455 -24.48,-5.911c-6.908,-3.979 -9.624,-10.736 -8.308,-20.657c2.773,-20.864 21.953,-35.582 42.759,-32.828c20.801,2.764 35.469,21.988 32.696,42.857c-1.312,9.888 -6.281,15.637 -15.184,17.574c-2.538,0.551 -5.294,0.772 -8.213,0.772Z" style="fill:#181a35;fill-rule:nonzero;"/><path d="M771.432,619.019l-0.002,0.209c0.097,12.984 10.128,23.44 22.412,23.353c12.298,-0.087 22.177,-10.68 22.094,-23.661c-0.011,-1.847 -0.235,-3.659 -0.638,-5.381c-2.363,-10.381 -11.245,-18.054 -21.774,-17.986c-12.22,0.095 -22.063,10.569 -22.092,23.466Z" style="fill:#aa73b1;fill-rule:nonzero;"/><path d="M771.432,619.019l0.024,-0l-0.024,-0Zm2.354,0.101l-0.01,0.313c0.095,11.394 9.014,20.792 19.915,20.792l0.135,-0c10.969,-0.078 19.83,-9.629 19.754,-21.291c-0.009,-1.633 -0.202,-3.265 -0.577,-4.856c-2.181,-9.586 -10.253,-16.152 -19.465,-16.166c-10.863,0.08 -19.724,9.551 -19.75,21.111l-0.002,0.097Zm19.903,25.817c-13.483,-0 -24.509,-11.488 -24.615,-25.692l0.005,-0.231l-0.003,0c0.031,-14.133 10.991,-25.713 24.432,-25.814l0.155,-0c11.445,-0 21.272,8.125 23.932,19.818c0.45,1.918 0.686,3.904 0.697,5.888c0.092,14.256 -10.868,25.934 -24.433,26.031l-0.17,-0Z" style="fill:#181a35;fill-rule:nonzero;"/><path d="M782.218,619.756c-2.757,0 -5.574,-0.139 -8.437,-0.447l0.007,-0.286c0.026,-11.56 8.887,-21.031 19.75,-21.111c9.212,0.014 17.284,6.58 19.465,16.166c0.021,0.087 0.04,0.175 0.059,0.262c-8.05,2.777 -18.848,5.416 -30.844,5.416Z" style="fill:#9963a9;fill-rule:nonzero;"/><path d="M773.781,619.309c-0.78,-0.085 -1.562,-0.182 -2.349,-0.29l0.024,-0l-0.024,-0c0.029,-12.897 9.872,-23.371 22.092,-23.466l0.141,0c10.466,0 19.282,7.653 21.633,17.986c-0.719,0.268 -1.466,0.535 -2.236,0.801c-0.019,-0.087 -0.038,-0.175 -0.059,-0.262c-2.181,-9.586 -10.253,-16.152 -19.465,-16.166c-10.863,0.08 -19.724,9.551 -19.75,21.111l-0.007,0.286Z" style="fill:#12122f;fill-rule:nonzero;"/><path d="M779.605,619.167c0.059,8.465 6.411,15.286 14.185,15.231c7.775,-0.054 14.032,-6.959 13.974,-15.426c-0.059,-8.465 -6.411,-15.284 -14.186,-15.232c-7.774,0.055 -14.029,6.962 -13.973,15.427Z" style="fill:#181a35;fill-rule:nonzero;"/><path d="M771.569,607.682c0.247,4.274 3.913,7.537 8.185,7.287c4.273,-0.248 7.536,-3.913 7.287,-8.187c-0.248,-4.271 -3.914,-7.535 -8.185,-7.285c-4.274,0.248 -7.537,3.913 -7.287,8.185Z" style="fill:#fff;fill-rule:nonzero;"/><path d="M794.862,626.57c0.106,1.844 1.69,3.253 3.537,3.147c1.844,-0.108 3.253,-1.691 3.145,-3.536c-0.106,-1.845 -1.689,-3.256 -3.534,-3.148c-1.847,0.109 -3.256,1.69 -3.148,3.537Z" style="fill:#fff;fill-rule:nonzero;"/><path d="M652.317,658.351c0,0 52.682,18.155 93.179,-3.26" style="fill:#f16e96;fill-rule:nonzero;"/><path d="M698.603,667.961c-25.164,0 -45.694,-6.914 -47.054,-7.383c-1.23,-0.424 -1.882,-1.765 -1.458,-2.995c0.422,-1.229 1.76,-1.884 2.994,-1.46c0.516,0.179 52.208,17.563 91.31,-3.115c1.152,-0.608 2.575,-0.167 3.183,0.983c0.608,1.149 0.17,2.575 -0.982,3.182c-15.519,8.209 -32.621,10.788 -47.993,10.788Z" style="fill:#181a35;fill-rule:nonzero;"/><path d="M743.243,642.581c0,-0 0,13.695 15.649,21.25" style="fill:#f16e96;fill-rule:nonzero;"/><path d="M745.599,642.581l0.024,-0l-0.024,-0Zm13.293,23.606c-0.344,0 -0.693,-0.075 -1.023,-0.235c-16.788,-8.105 -16.982,-22.752 -16.982,-23.371c0,-1.301 1.056,-2.356 2.356,-2.356c1.298,-0 2.351,1.05 2.356,2.349c0.007,0.544 0.309,12.373 14.317,19.135c1.171,0.565 1.664,1.974 1.098,3.145c-0.407,0.843 -1.248,1.333 -2.122,1.333Z" style="fill:#181a35;fill-rule:nonzero;"/><path d="M655.288,642.581c0,-0 1.619,12.616 -10.792,22.329" style="fill:#f16e96;fill-rule:nonzero;"/><path d="M644.496,667.266c-0.698,0 -1.39,-0.311 -1.857,-0.904c-0.801,-1.023 -0.62,-2.505 0.405,-3.308c11.13,-8.71 9.961,-19.719 9.905,-20.184c-0.153,-1.288 0.763,-2.462 2.049,-2.622c1.296,-0.153 2.46,0.747 2.625,2.033c0.075,0.568 1.64,14.066 -11.676,24.486c-0.429,0.337 -0.943,0.499 -1.451,0.499Z" style="fill:#181a35;fill-rule:nonzero;"/><path d="M582.319,580.647c-20.779,10.861 -40.97,24.856 -51.689,16.563c-5.066,-3.911 -8.576,-10.791 -9.683,-18.824c-2.215,-16.092 5.136,-36.824 28.648,-47.779c33.902,-15.809 77.299,-11.78 81.988,4.499c0.188,0.637 0.306,1.296 0.376,1.98c1.626,17.928 -24.996,30.651 -49.64,43.561Z" style="fill:#b1376e;fill-rule:nonzero;"/><path d="M582.319,580.647l0.024,0l-0.024,0Zm12.876,-57.629c-13.872,0 -30.048,2.938 -44.603,9.723c-23.27,10.842 -29.257,31.193 -27.311,45.324c1.03,7.464 4.232,13.761 8.788,17.281c7.697,5.956 22.759,-2.344 38.704,-11.127c3.44,-1.897 6.938,-3.822 10.453,-5.659l4.283,-2.236c22.368,-11.653 45.494,-23.703 44.104,-39.026c-0.057,-0.557 -0.153,-1.065 -0.287,-1.522c-1.193,-4.135 -5.483,-6.837 -8.873,-8.381c-6.147,-2.796 -15.083,-4.377 -25.258,-4.377Zm-56.649,79.042c-3.499,0 -6.649,-0.892 -9.358,-2.987c-5.525,-4.264 -9.379,-11.688 -10.576,-20.365c-2.163,-15.721 4.394,-38.312 29.989,-50.236c27.456,-12.805 58.517,-12.322 73.805,-5.364c6.154,2.801 10.11,6.724 11.441,11.346c0.214,0.721 0.365,1.508 0.457,2.387c1.677,18.498 -22.874,31.289 -46.615,43.66l-4.276,2.234l-0.003,-0c-3.484,1.823 -6.955,3.731 -10.364,5.609c-12.71,7 -24.902,13.716 -34.5,13.716Z" style="fill:#181a35;fill-rule:nonzero;"/><path d="M870.076,579.799c-1.484,6.715 -4.712,12.369 -9.117,15.761c-10.696,8.27 -30.91,-5.725 -51.69,-16.586c-21.557,-11.285 -44.645,-22.428 -48.957,-37.082c-0.636,-2.074 -0.871,-4.217 -0.659,-6.456c1.625,-17.928 47.095,-22.923 82.34,-6.479c25.044,11.662 31.759,34.421 28.083,50.842Z" style="fill:#b1376e;fill-rule:nonzero;"/><path d="M796.509,521.277c-11.539,-0 -21.477,2.078 -27.696,5.654c-4.218,2.425 -6.51,5.358 -6.814,8.717c-0.181,1.909 0.005,3.723 0.565,5.553c3.753,12.751 23.965,23.275 43.513,33.45l4.285,2.236c3.513,1.835 7.009,3.76 10.449,5.654c15.959,8.788 31.037,17.086 38.706,11.156c3.946,-3.039 6.877,-8.154 8.258,-14.407l0.002,-0.005c3.605,-16.103 -3.28,-37.247 -26.778,-48.191c-14.722,-6.87 -30.745,-9.817 -44.49,-9.817Zm56.562,79.123c-9.596,-0 -21.804,-6.722 -34.531,-13.731c-3.412,-1.875 -6.877,-3.786 -10.362,-5.607l-4.278,-2.231c-20.422,-10.633 -41.538,-21.626 -45.847,-36.275c-0.728,-2.37 -0.983,-4.851 -0.747,-7.341c0.445,-4.898 3.612,-9.179 9.155,-12.369c18.815,-10.818 54.376,-6.361 76.529,3.977c25.868,12.046 33.4,35.542 29.388,53.485c-1.621,7.332 -5.167,13.41 -9.982,17.118c-2.695,2.085 -5.838,2.974 -9.325,2.974Z" style="fill:#181a35;fill-rule:nonzero;"/><path d="M540.461,903.187c-15.877,0 -32.729,-2.542 -48.726,-7.894c-62.958,-21.072 -67.637,-65.696 -66.728,-83.903c0.005,-0.073 0.005,-0.144 0.003,-0.215c0.087,-1.781 0.848,-15.65 3.925,-32.606c13.094,39.18 35.316,71.068 64.956,71.068c9.541,-0 19.851,-3.304 30.872,-10.73c40.843,-27.541 45.002,-63.038 45.331,-73.053c9.323,6.279 17.369,15.236 24.078,26.844c8.55,14.797 12.416,29.958 13.827,36.701c-0.033,0.476 -0.07,0.949 -0.117,1.428c-0.293,0.087 -0.585,0.176 -0.872,0.27c-0.229,-0.007 -0.46,-0.011 -0.693,-0.011c-4.365,-0 -9.313,1.211 -14.753,4.417c-1.121,0.662 -1.493,2.106 -0.831,3.225c0.23,0.394 0.56,0.695 0.937,0.893c-12.067,10.996 -11.671,27.805 15.653,38.907c-11.129,15.862 -37.316,24.659 -66.862,24.659Z" style="fill:#db5e85;fill-rule:nonzero;"/><path d="M540.923,905.614c-54.967,0 -119.827,-29.911 -118.354,-91.995l0.078,0.002c1.258,-0 2.301,-0.992 2.353,-2.257c0,-0.014 0.003,-0.078 0.01,-0.189c0.002,0.071 0.002,0.142 -0.003,0.215c-0.909,18.207 3.77,62.831 66.728,83.903c15.997,5.352 32.849,7.894 48.726,7.894c29.546,0 55.733,-8.797 66.862,-24.659c0.733,0.297 1.482,0.589 2.255,0.878c-11.766,17.35 -38.753,26.208 -68.655,26.208Z" style="fill:#12122f;fill-rule:nonzero;"/><path d="M607.999,829.399c-1.411,-6.743 -5.277,-21.904 -13.827,-36.701c-6.709,-11.608 -14.755,-20.565 -24.078,-26.844c0.059,-1.765 -0.002,-2.738 -0.002,-2.738c0,0 40.485,28.63 37.907,66.283Z" style="fill:#12122f;fill-rule:nonzero;"/><path d="M591.67,839.621c-0.377,-0.198 -0.707,-0.499 -0.937,-0.893c-0.662,-1.119 -0.29,-2.563 0.831,-3.225c5.44,-3.206 10.388,-4.417 14.753,-4.417c0.233,-0 0.464,0.004 0.693,0.011c-6.111,1.949 -11.391,4.924 -15.34,8.524Z" style="fill:#12122f;fill-rule:nonzero;"/><path d="M420.416,808.885c-34.8,-0.942 -70.722,-23.736 -87.986,-56.083c-13.724,-25.706 -13.012,-52.26 1.993,-74.797c0.723,-0.761 6.484,-6.561 17.425,-11.2c3.477,-1.475 7.725,-2.926 12.736,-4.041c-23.694,26.01 -24.851,108.537 40.669,108.537c6.271,-0 13.146,-0.756 20.678,-2.389c0.016,0.059 0.035,0.12 0.052,0.177c-3.923,17.86 -5.207,33.947 -5.567,39.796Z" style="fill:#db5e85;fill-rule:nonzero;"/><path d="M420.291,811.239c-63.927,-1.755 -125.698,-74.293 -88.98,-132.761c0.391,0.255 0.839,0.382 1.286,0.382c0.643,0 1.282,-0.259 1.748,-0.773c0.005,-0.004 0.031,-0.033 0.078,-0.082c-15.005,22.537 -15.717,49.091 -1.993,74.797c17.264,32.347 53.186,55.141 87.986,56.083c-0.081,1.282 -0.114,2.074 -0.123,2.283c0,0.024 -0.002,0.048 -0.002,0.071Z" style="fill:#12122f;fill-rule:nonzero;"/><path d="M332.708,673.102c-29.334,-33.605 -43.738,-84.346 -16.376,-119.732c-3.035,37.608 1.453,91.75 49.814,104.171c-18.388,3.484 -29.313,11.825 -33.438,15.561Z" style="fill:#db5e85;fill-rule:nonzero;"/><path d="M331.016,674.747c-31.998,-36.563 -44.589,-90.081 -14.31,-125.575c-0.134,1.371 -0.259,2.775 -0.374,4.198c-27.362,35.386 -12.958,86.127 16.376,119.732c-0.851,0.773 -1.414,1.35 -1.692,1.645Z" style="fill:#12122f;fill-rule:nonzero;"/><path d="M422.647,813.621l-0.078,-0.002c0.019,-0.778 0.047,-1.558 0.087,-2.347c-0.787,0 -1.578,-0.012 -2.365,-0.033c-0,-0.023 0.002,-0.047 0.002,-0.071c0.009,-0.209 0.042,-1.001 0.123,-2.283c0.36,-5.849 1.644,-21.936 5.567,-39.796c0.926,3.201 1.908,6.361 2.952,9.48c-3.077,16.956 -3.838,30.825 -3.925,32.606c-0.007,0.111 -0.01,0.175 -0.01,0.189c-0.052,1.265 -1.095,2.257 -2.353,2.257Z" style="fill:#12122f;fill-rule:nonzero;"/><path d="M332.597,678.86c-0.447,0 -0.895,-0.127 -1.286,-0.382c0.412,-0.657 0.839,-1.312 1.277,-1.967c-0.53,-0.582 -1.053,-1.173 -1.572,-1.764c0.278,-0.295 0.841,-0.872 1.692,-1.645c4.125,-3.736 15.05,-12.077 33.438,-15.561c1.133,0.292 2.295,0.561 3.477,0.806c-1.771,1.192 -3.456,2.678 -5.039,4.417c-5.011,1.115 -9.259,2.566 -12.736,4.041c-10.941,4.639 -16.702,10.439 -17.425,11.2c-0.047,0.049 -0.073,0.078 -0.078,0.082c-0.466,0.514 -1.105,0.773 -1.748,0.773Z" style="fill:#12122f;fill-rule:nonzero;"/><path d="M816.082,900.554c-40.932,-0 -82.215,-12.701 -101.822,-30.663c-2.537,-2.309 -4.837,-4.778 -6.837,-7.33c-0.056,-0.07 -0.113,-0.141 -0.179,-0.207c-1.239,-1.31 -27.572,-29.975 -1.574,-70.464c1.046,16.682 8.925,80.1 68.26,88.906c5.555,0.825 10.755,1.207 15.608,1.207c39.882,-0 56.75,-25.6 63.01,-39.632c1.385,-3.103 2.25,-5.643 2.726,-7.212c1.465,-0.071 2.898,-0.101 4.278,-0.101c8.345,-0 14.793,1.112 14.965,1.145c0.139,0.026 0.278,0.038 0.415,0.038c0.219,-0 0.433,-0.031 0.638,-0.09c9.57,15 22.271,23.018 26.524,25.414c-1.663,14.875 -16.12,23.826 -28.173,28.754c-17.413,7.125 -37.582,10.235 -57.839,10.235Zm125.861,-34.855c-11.634,0 -23.946,-2.537 -36.482,-7.675c-0.022,-0.01 -0.043,-0.017 -0.064,-0.026c-1.397,-0.716 -10.449,-5.589 -19.206,-15.535c6.929,2.702 17.705,3.936 29.165,3.936c14.475,0 30.04,-1.969 40.336,-5.442c18.666,-6.29 13.69,-41.29 11.949,-50.884c2.059,0.149 4.119,0.217 6.154,0.217c15.436,-0 29.73,-3.869 35.127,-5.52c6.713,20.07 -0.487,44.69 -18.145,61.646c-13.3,12.772 -30.196,19.283 -48.834,19.283Zm-251.871,-32.484c-0.224,-1.274 -0.403,-2.575 -0.533,-3.896c-1.126,-11.288 1.944,-20.763 5.685,-27.791c-5.079,11.829 -6.116,22.546 -5.152,31.687Z" style="fill:#db5e85;fill-rule:nonzero;"/><path d="M814.855,902.568c-38.32,0.002 -79.384,-10.053 -102.18,-30.936c-0,-0 -2.458,-2.022 -5.789,-5.728c0.094,-0.066 0.186,-0.139 0.273,-0.221c0.874,-0.832 0.969,-2.177 0.264,-3.122c2,2.552 4.3,5.021 6.837,7.33c19.607,17.962 60.89,30.663 101.822,30.663c20.257,-0 40.426,-3.11 57.839,-10.235c12.053,-4.928 26.51,-13.879 28.173,-28.754c0.89,0.502 1.411,0.756 1.453,0.777c0.257,0.123 0.526,0.196 0.794,0.219c-3.654,26.262 -44.692,40.005 -89.486,40.007Zm126.93,-34.508c-10.784,0 -22.521,-2.139 -35.031,-6.983c0.448,-1.14 -0.054,-2.448 -1.176,-2.987c-0.011,-0.007 -0.075,-0.036 -0.181,-0.092c0.021,0.009 0.042,0.016 0.064,0.026c12.536,5.138 24.848,7.675 36.482,7.675c18.638,0 35.534,-6.511 48.834,-19.283c17.658,-16.956 24.858,-41.576 18.145,-61.646c1.228,-0.375 1.994,-0.636 2.21,-0.712c0.01,-0.002 0.022,-0.007 0.033,-0.011c11.785,35.348 -17.938,84.013 -69.38,84.013Z" style="fill:#12122f;fill-rule:nonzero;"/><path d="M973.795,790.29c-2.035,-0 -4.095,-0.068 -6.154,-0.217c-0.28,-1.545 -0.476,-2.431 -0.476,-2.431c0,-0 21.628,-1.979 43.586,-4.783c0.143,0.396 0.28,0.789 0.414,1.188c-0.011,0.004 -0.023,0.009 -0.033,0.011c-0.216,0.076 -0.982,0.337 -2.21,0.712c-5.397,1.651 -19.691,5.52 -35.127,5.52Z" style="fill:#12122f;fill-rule:nonzero;"/><path d="M904.341,862.561c-0.268,-0.023 -0.537,-0.096 -0.794,-0.219c-0.042,-0.021 -0.563,-0.275 -1.453,-0.777c-4.253,-2.396 -16.954,-10.414 -26.524,-25.414c0.384,-0.108 0.738,-0.316 1.021,-0.596c1.192,0.817 2.337,1.812 3.404,3.023c1.343,1.531 3.473,2.82 6.196,3.885c8.757,9.946 17.809,14.819 19.206,15.535c0.106,0.056 0.17,0.085 0.181,0.092c1.122,0.539 1.624,1.847 1.176,2.987c-0.728,-0.283 -1.454,-0.572 -2.186,-0.872c-0.043,0.794 -0.118,1.584 -0.227,2.356Z" style="fill:#12122f;fill-rule:nonzero;"/><path d="M874.932,836.241c-0.137,-0 -0.276,-0.012 -0.415,-0.038c-0.172,-0.033 -6.62,-1.145 -14.965,-1.145c-1.38,-0 -2.813,0.03 -4.278,0.101c0.334,-1.098 0.478,-1.717 0.478,-1.717c0,-0 1.131,-0.401 2.945,-0.731c1.541,-0.299 3.581,-0.577 5.862,-0.577c2.565,0 5.433,0.354 8.227,1.425c0.471,0.189 0.942,0.377 1.413,0.613c0.811,0.391 1.612,0.85 2.392,1.383c-0.283,0.28 -0.637,0.488 -1.021,0.596c-0.205,0.059 -0.419,0.09 -0.638,0.09Z" style="fill:#12122f;fill-rule:nonzero;"/><path d="M706.886,865.904c-0.459,-0.508 -0.933,-1.05 -1.421,-1.623c-5.663,-6.653 -13.019,-17.519 -15.393,-31.066c-0.964,-9.141 0.073,-19.858 5.152,-31.687c4.632,-8.698 10.289,-13.651 10.289,-13.651c-0,0 -0,1.459 0.157,4.013c-25.998,40.489 0.335,69.154 1.574,70.464c0.066,0.066 0.123,0.137 0.179,0.207c0.705,0.945 0.61,2.29 -0.264,3.122c-0.087,0.082 -0.179,0.155 -0.273,0.221Z" style="fill:#12122f;fill-rule:nonzero;"/><path d="M1034.57,587.479c-3.652,-1.357 -12.451,-4.184 -22.334,-4.184c-2.399,0 -4.863,0.168 -7.332,0.561c5.407,-9.193 28.856,-51.186 20.308,-74.382c-8.46,-22.94 -49.376,-46.316 -59.233,-51.678c1.211,-8.216 1.088,-14.822 0.881,-18.235c0.841,-0.038 1.68,-0.057 2.521,-0.057c26.269,0 51.993,18.16 67.684,47.986c17.988,34.195 16.963,73.24 -2.495,99.989Z" style="fill:#db5e85;fill-rule:nonzero;"/><path d="M1036.79,588.436c-0.139,-0.101 -0.292,-0.191 -0.457,-0.261c-0.141,-0.062 -0.756,-0.323 -1.76,-0.696c19.458,-26.749 20.483,-65.794 2.495,-99.989c-15.691,-29.826 -41.415,-47.986 -67.684,-47.986c-0.841,0 -1.68,0.019 -2.521,0.057c-0.073,-1.202 -0.156,-2.01 -0.196,-2.352c0.917,-0.042 1.833,-0.061 2.743,-0.061c61.304,0 108.678,93.871 67.38,151.288Z" style="fill:#12122f;fill-rule:nonzero;"/><path d="M965.983,457.796c-1.369,-0.747 -2.139,-1.143 -2.139,-1.143l2.685,-19.437c0.047,-0.002 0.092,-0.004 0.139,-0.007c0.04,0.342 0.123,1.15 0.196,2.352c0.207,3.413 0.33,10.019 -0.881,18.235Z" style="fill:#12122f;fill-rule:nonzero;"/><path d="M1035.51,590.165c-5.2,-2.627 -12.828,-5.225 -22.601,-5.225c-2.851,-0 -5.88,0.221 -9.087,0.725c0,0 0.396,-0.638 1.084,-1.809c2.469,-0.393 4.933,-0.561 7.332,-0.561c9.883,0 18.682,2.827 22.334,4.184c1.004,0.373 1.619,0.634 1.76,0.696c0.165,0.07 0.318,0.16 0.457,0.261c-0.417,0.577 -0.846,1.159 -1.279,1.729Z" style="fill:#12122f;fill-rule:nonzero;"/><path d="M1041.64,593.911c-0.824,-0.636 -1.932,-1.39 -3.251,-2.191c1.037,0.566 2.12,1.296 3.251,2.191Z" style="fill:#12122f;fill-rule:nonzero;"/><path d="M375.205,470.077c5.859,16.509 73.407,-12.076 62.557,-34.635c-10.849,-22.558 -71.175,10.348 -62.557,34.635Z" style="fill:#fff;fill-rule:nonzero;"/><path d="M465.985,795.339c-2.246,18.105 55.843,33.113 63.177,8.825c7.334,-24.287 -60.044,-34.105 -63.177,-8.825Z" style="fill:#fff;fill-rule:nonzero;"/><path d="M920.011,646.689c-4.757,12.598 36.753,35.863 47.161,13.625c10.407,-22.24 -37.987,-37.91 -47.161,-13.625Z" style="fill:#fff;fill-rule:nonzero;"/><path d="M847.363,765.776c3.444,19.884 45.133,10.967 44.977,-6.269c-0.158,-17.236 -49.555,-20.151 -44.977,6.269Z" style="fill:#fff;fill-rule:nonzero;"/><path d="M702.339,484.515c13.118,20.261 98.599,-26.406 84.716,-66.599c-13.886,-40.19 -111.602,25.077 -84.716,66.599Z" style="fill:#fff;fill-rule:nonzero;"/><path d="M692.512,525.004c7.596,13.344 31.827,-5.44 20.165,-16.305c-11.657,-10.864 -27.892,2.737 -20.165,16.305Z" style="fill:#fff;fill-rule:nonzero;"/><path d="M416.627,590.165c7.584,14.362 45.218,5.6 37.886,-15.551c-7.331,-21.155 -44.155,3.682 -37.886,15.551Z" style="fill:#fff;fill-rule:nonzero;"/><path d="M460.349,517.185c-3.802,14.816 29.351,25.59 37.472,7.819c8.118,-17.769 -31.5,-31.094 -37.472,-7.819Z" style="fill:#fff;fill-rule:nonzero;"/><path d="M436.283,714.572c-2.203,4.756 16.079,26.443 24.066,9.836c7.987,-16.605 -17.104,-24.87 -24.066,-9.836Z" style="fill:#fff;fill-rule:nonzero;"/><path d="M548.978,696.907c-15.104,-0 -27.348,-12.244 -27.348,-27.348c-0,-15.104 12.244,-27.348 27.348,-27.348c15.102,-0 27.348,12.244 27.348,27.348c-0,15.104 -12.246,27.348 -27.348,27.348Z" style="fill:#f05f85;fill-rule:nonzero;"/><path d="M847.061,704.919c-15.102,0 -27.346,-12.244 -27.346,-27.348c0,-15.104 12.244,-27.348 27.346,-27.348c15.104,0 27.348,12.244 27.348,27.348c-0,15.104 -12.244,27.348 -27.348,27.348Z" style="fill:#f05f85;fill-rule:nonzero;"/><path d="M538.656,597.36c-2.549,0 -4.773,-0.61 -6.587,-2.014c-4.556,-3.52 -7.758,-9.817 -8.788,-17.281c-0.058,-0.429 -0.11,-0.862 -0.155,-1.303c24.905,-18.277 59.373,-34.826 106.089,-41.335c0.04,0.115 0.075,0.231 0.111,0.349c0.134,0.457 0.23,0.965 0.287,1.522c1.39,15.323 -21.736,27.373 -44.104,39.026l-4.283,2.236c-3.515,1.837 -7.013,3.762 -10.453,5.659c-12.188,6.712 -23.857,13.141 -32.117,13.141Z" style="fill:#962b60;fill-rule:nonzero;"/><path d="M538.621,599.721c-3.032,0 -5.723,-0.756 -7.991,-2.511c-5.066,-3.911 -8.576,-10.791 -9.683,-18.824c0.718,-0.542 1.444,-1.084 2.179,-1.624c0.045,0.441 0.097,0.874 0.155,1.303c1.03,7.464 4.232,13.761 8.788,17.281c1.814,1.404 4.038,2.014 6.587,2.014c8.26,0 19.929,-6.429 32.117,-13.141c3.44,-1.897 6.938,-3.822 10.453,-5.659l4.283,-2.236c22.368,-11.653 45.494,-23.703 44.104,-39.026c-0.057,-0.557 -0.153,-1.065 -0.287,-1.522c-0.036,-0.118 -0.071,-0.234 -0.111,-0.349c0.784,-0.111 1.576,-0.217 2.368,-0.321c0.188,0.637 0.306,1.296 0.376,1.98c1.626,17.928 -24.996,30.651 -49.64,43.561c0,0 0.003,0 0,0c-16.383,8.562 -32.401,19.074 -43.698,19.074Z" style="fill:#12122f;fill-rule:nonzero;"/><path d="M852.965,595.699c-8.253,-0.002 -19.946,-6.436 -32.154,-13.158c-3.44,-1.894 -6.936,-3.819 -10.449,-5.654l-4.285,-2.236c-18.897,-9.836 -38.414,-19.999 -43.084,-32.182c39.682,8.651 75.019,21.99 104.899,36.279c-0.037,0.179 -0.075,0.358 -0.115,0.537l-0.002,0.005c-1.381,6.253 -4.312,11.368 -8.258,14.407c-1.802,1.395 -4.015,2.002 -6.552,2.002Z" style="fill:#962b60;fill-rule:nonzero;"/><path d="M852.996,598.06c-11.295,0 -27.334,-10.517 -43.727,-19.086c-21.557,-11.285 -44.645,-22.428 -48.957,-37.082c0.898,0.191 1.791,0.381 2.681,0.577c4.67,12.183 24.187,22.346 43.084,32.182l4.285,2.236c3.513,1.835 7.009,3.76 10.449,5.654c12.208,6.722 23.901,13.156 32.154,13.158c2.537,0 4.75,-0.607 6.552,-2.002c3.946,-3.039 6.877,-8.154 8.258,-14.407l0.002,-0.005c0.04,-0.179 0.078,-0.358 0.115,-0.537c0.731,0.351 1.459,0.7 2.184,1.051c-1.484,6.715 -4.712,12.369 -9.117,15.761c-2.257,1.746 -4.941,2.5 -7.963,2.5Z" style="fill:#12122f;fill-rule:nonzero;"/><path d="M817.823,892.647c0,-0 32.072,123.73 13.203,118.589c-0.926,-0.261 -1.868,-0.593 -2.784,-1.003c-18.075,-8.065 -37.119,-44.94 -37.119,-44.94l-25.51,-2.535l-4.556,-53.954l42.65,-12.138l14.116,-4.019Z" style="fill:#aa73b1;fill-rule:nonzero;"/><path d="M767.795,960.607l23.562,2.342c0.794,0.077 1.493,0.553 1.861,1.263c0.186,0.36 18.873,36.234 35.982,43.87c0.768,0.344 1.598,0.641 2.469,0.888c0.632,0.163 0.811,-0.007 0.983,-0.174c3.913,-3.866 2.827,-38.025 -16.506,-113.223l-52.578,14.965l4.227,50.069Zm64.313,53.139c-0.552,-0 -1.119,-0.078 -1.699,-0.236c-1.112,-0.316 -2.158,-0.69 -3.129,-1.126c-17.003,-7.586 -34.194,-38.416 -37.648,-44.872l-24.252,-2.41c-1.129,-0.113 -2.019,-1.015 -2.113,-2.146l-4.557,-53.954c-0.096,-1.124 0.617,-2.158 1.701,-2.464l56.767,-16.158c0.61,-0.171 1.267,-0.094 1.816,0.222c0.552,0.316 0.952,0.839 1.11,1.454c4.679,18.049 27.431,108.661 15.86,120.092c-1.069,1.053 -2.4,1.598 -3.856,1.598Z" style="fill:#181a35;fill-rule:nonzero;"/><path d="M817.823,892.647c0,-0 32.072,123.73 13.203,118.589c-0.926,-0.261 -1.868,-0.593 -2.784,-1.003l-24.535,-113.567l14.116,-4.019Z" style="fill:#875ba6;fill-rule:nonzero;"/><path d="M830.279,1008.52c0.45,0.165 0.915,0.316 1.39,0.45c0.632,0.163 0.811,-0.007 0.983,-0.174c3.913,-3.866 2.827,-38.025 -16.506,-113.223l-9.671,2.754l23.804,110.193Zm1.829,5.226c-0.552,-0 -1.119,-0.078 -1.699,-0.236c-1.112,-0.316 -2.158,-0.69 -3.129,-1.126c-0.685,-0.306 -1.182,-0.919 -1.343,-1.654l-24.535,-113.567c-0.261,-1.213 0.465,-2.422 1.659,-2.763l14.117,-4.02c0.61,-0.171 1.267,-0.094 1.816,0.222c0.552,0.316 0.952,0.839 1.11,1.454c4.679,18.049 27.431,108.661 15.86,120.092c-1.069,1.053 -2.4,1.598 -3.856,1.598Z" style="fill:#181a35;fill-rule:nonzero;"/></g></svg>