<?xml version="1.0" encoding="UTF-8" standalone="no"?><!DOCTYPE svg PUBLIC "-//W3C//DTD SVG 1.1//EN" "http://www.w3.org/Graphics/SVG/1.1/DTD/svg11.dtd"><svg width="100%" height="100%" viewBox="0 0 1389 1389" version="1.1" xmlns="http://www.w3.org/2000/svg" xmlns:xlink="http://www.w3.org/1999/xlink" xml:space="preserve" xmlns:serif="http://www.serif.com/" style="fill-rule:evenodd;clip-rule:evenodd;stroke-linecap:round;stroke-linejoin:round;stroke-miterlimit:1.5;"><rect id="Artboard25" x="0" y="0" width="1388.89" height="1388.89" style="fill:none;"/><clipPath id="_clip1"><rect x="0" y="0" width="1388.89" height="1388.89"/></clipPath><g clip-path="url(#_clip1)"><ellipse cx="694.323" cy="693.821" rx="686.442" ry="688.335" style="stroke:#000;stroke-width:12.11px;"/><g><g transform="matrix(0.982954,-0.183849,0.183849,0.982954,1427.44,-1180.07)"><g transform="matrix(373.652,0,0,373.652,-1051.19,1853.4)"></g><text x="-1642.68px" y="1853.4px" style="font-family:'FeelingPassionate-Regular', 'Feeling Passionate';font-size:373.652px;fill:#fff;">st</text></g><g transform="matrix(0.982954,-0.183849,0.183849,0.982954,1455.2,-1079.11)"><g transform="matrix(373.652,0,0,373.652,-533.762,1754.22)"></g><text x="-1043.42px" y="1754.22px" style="font-family:'FeelingPassionate-Regular', 'Feeling Passionate';font-size:373.652px;fill:#fff;">pid</text></g><g transform="matrix(0.999994,-0.00339742,0.00339742,0.999994,16.7142,-6.20766)"><g transform="matrix(94.1283,0,0,94.1283,1167.22,910.142)"></g><text x="780.448px" y="910.142px" style="font-family:'Wedges';font-size:94.128px;fill:#fff;">PENGUIN</text></g><g><g><path d="M555.388,616.896c-54.158,8.67 -113.582,42.84 -136.127,103.715c-1.439,3.885 -2.645,7.736 -3.879,11.469c-25.508,77.155 19.275,133.016 55.233,149.248c33.25,15.008 75.712,18.324 120.4,14.748c60.808,-4.866 102.357,-22.908 116.859,-34.466c16.882,-13.454 46.345,-46.202 9.727,-102.813c-0.552,-0.855 16.379,-44.716 -27.729,-95.49c-27.293,-31.417 -66.569,-57.283 -134.484,-46.411Z" style="fill:#f8c3da;"/><path d="M722.549,757.85c8.223,12.886 33.308,54.885 2.664,93.69c-1.089,1.378 -6.965,8.82 -15.718,15.317c-20.307,15.074 -73.06,34.835 -144.27,35.926c-19.889,0.305 -61.991,-0.432 -97.69,-17.055c-36.078,-16.799 -83.535,-74.229 -56.522,-155.081c3.467,-10.377 13.973,-48.43 56.308,-80.537c38.864,-29.474 80.223,-35.513 87.507,-36.672l0.035,0.176c30.076,-4.666 76.85,-7.76 120.147,29.101c5.246,4.467 20.273,17.976 31.965,36.395c24.256,38.213 17.561,70.109 15.574,78.74Zm-166.629,-137.671l0.028,0.175c-51.051,8.78 -90.362,35.469 -113.164,66.143c-14.622,19.669 -19.877,36.859 -23.595,48.783c-23.124,74.168 20.456,126.18 53.21,141.052c13.787,6.26 50.402,20.444 122.366,13.976c54.85,-4.929 95.532,-21.08 110.661,-33.329c35.337,-28.608 23.94,-62.591 19.242,-74.515c-4.554,-11.554 -10.745,-20.657 -11.162,-21.392c-1.376,-2.424 -0.026,-4.255 1.082,-10.724c2.905,-16.969 2.755,-49.032 -28.48,-85.037c-27.392,-31.574 -65.573,-55.115 -130.188,-45.132Z"/><path d="M630.889,776.07c-0.43,-18.67 -0.87,-59.199 -17.695,-78.852c-39.476,-46.109 -102.207,-24.228 -126.485,20.399c-16.239,29.849 -29.265,102.645 24.051,146.914c18.964,15.746 67.847,27.509 124.464,19.114c143.262,-21.243 91.594,-110.563 80.531,-124.264c-0.912,-1.129 7.391,-19.202 -1.333,-50.122c-7.053,-25.001 -24.247,-45.809 -42.638,-41.738c-24.61,5.447 -33.084,24.356 -33.155,39.679c-0.137,29.364 10.326,59.258 12.144,66.23c0.234,0.898 -15.012,6.326 -19.884,2.64Z" style="fill:#fff;"/><path d="M551.095,621.803c3.011,-14.56 20.996,-29.499 26.984,-25.537c4.099,2.712 0.731,12.533 0.731,12.533c0,0 21.405,-19.23 27.081,-12.764c5.005,5.702 -9.465,13.604 -9.465,13.604c0,-0 24.807,-8.397 28.146,-0.942c6.11,13.642 -18.272,21.919 -28.449,19.02" style="fill:#f7c3da;"/><path d="M567.571,609.379c-3.769,2.845 -7.849,6.97 -10.277,11.786c-0.803,1.594 -0.691,1.645 -0.778,1.773c-0.789,1.165 -1.197,2.718 -2.372,3.49c-0.02,0.013 -4.174,0.803 -4.185,0.796c-1.158,-0.79 -2.699,-1.207 -3.47,-2.379c-0.241,-0.367 -1.189,-1.81 -0.654,-5.461c2.227,-15.183 17.389,-33.725 30.469,-33.648c3.097,0.018 6.14,1.01 8.633,3.006c7.737,-5.307 16.387,-8.703 24.28,-5.59c4.71,1.858 8.538,6.054 9.925,11.236c5.48,0.636 11.902,2.806 15.031,9.205c2.178,4.457 1.967,8.926 1.93,9.717c-0.867,18.34 -26.102,26.07 -40.525,22.338c-2.325,-0.601 -2.479,-0.333 -4.354,-1.827c-0.37,-0.294 -2.496,-1.987 -2.87,-5.155c-0.387,-3.269 1.359,-5.456 1.662,-5.835c0.575,-0.721 1.211,-1.261 1.835,-1.664c-2.012,-0.806 -3.277,-1.921 -3.621,-2.223c-0.686,-0.605 -1.261,-1.237 -1.742,-1.877c-1.987,1.444 -2.174,1.669 -3.536,2.207c-0.708,0.28 -4.882,1.929 -9.498,-0.568c-0.669,-0.362 -4.616,-2.497 -5.672,-7.638c-0.037,-0.178 -0.166,-0.807 -0.211,-1.689Z"/></g><g><g><path d="M573.357,754.23c10.068,-0.18 18.44,7.655 18.685,17.487c0.245,9.831 -7.729,17.96 -17.797,18.14c-10.067,0.181 -18.439,-7.655 -18.684,-17.486c-0.246,-9.832 7.729,-17.96 17.796,-18.141Z"/><path d="M579.458,759.976c4.149,-0.075 7.6,3.164 7.701,7.228c0.101,4.064 -3.185,7.423 -7.334,7.498c-4.149,0.074 -7.6,-3.165 -7.701,-7.229c-0.101,-4.063 3.185,-7.423 7.334,-7.497Z" style="fill:#fff;"/><path d="M569.613,776.548c2.372,-0.043 4.344,1.73 4.399,3.955c0.056,2.225 -1.826,4.067 -4.198,4.109c-2.373,0.043 -4.344,-1.73 -4.4,-3.955c-0.055,-2.225 1.826,-4.066 4.199,-4.109Z" style="fill:#fff;"/></g><path d="M684.578,755.598c4.284,-0.352 9.397,-0.19 14.715,1.282c0.807,0.223 2.358,0.786 2.373,0.806c0.392,0.513 0.652,1.118 1.044,1.632c-0.584,0.271 -1.044,0.769 -1.629,1.04c-0.017,0.008 -3.839,-0.335 -10.225,0.861c-5.665,1.061 -14.028,3.196 -16.861,3.522c-3.506,0.403 -5.255,-3.222 -3.24,-5.886c2.607,-3.445 15.014,-10.194 22.064,-9.981c0.135,0.004 0.295,-0.062 0.405,0.016c0.716,0.509 0.568,0.676 1.284,1.186c-0.415,0.407 -0.766,0.877 -1.182,1.284c-0.008,0.008 -2.668,0.221 -7.943,3.693c-0.256,0.169 -0.525,0.351 -0.805,0.545Z"/><g><path d="M618.789,789.14c0.622,5.239 15.213,16.528 29.615,14.197c14.651,-2.371 20.709,-16.801 20.579,-20.734c-0.079,-2.397 -7.987,-10.757 -25.92,-8.836c-11.811,1.266 -24.933,9.82 -24.274,15.373Z" style="fill:#fcb040;"/><path d="M616.059,789.477c-0.118,0.006 -0.237,0.016 -0.358,0.03c-0.001,-0.025 -1.478,-5.861 9.467,-12.4c8.272,-4.942 18.504,-7.337 29.244,-5.628c10.231,1.627 16.85,7.423 16.825,11.199c-0.043,6.643 -9.962,25.305 -30.144,23.161c-12.733,-1.352 -23.935,-10.323 -24.962,-15.924c-0.027,-0.146 -0.046,-0.293 -0.072,-0.438Zm5.757,0.158c3.079,6.294 23.404,19.228 37.843,5.712c4.408,-4.126 6.911,-9.711 7.067,-12.555c-1.517,-2.768 -8.889,-8.261 -23.638,-6.401c-9.825,1.238 -20.611,8.383 -21.209,12.274c0.004,0.396 -0.018,0.715 -0.063,0.97Z"/><path d="M625.927,788.296c-0.511,-2.678 8.26,-8.01 18.316,-9.258c9.075,-1.126 20.059,1.782 20.162,4.46c0.147,3.819 -6.992,13.6 -16.762,14.75c-8.758,1.031 -20.897,-5.656 -21.716,-9.952Z" style="fill:#b0233e;"/><path d="M623.289,788.799c-0.007,-0.082 -1.52,-4.383 8.531,-8.629c8.988,-3.797 17.097,-3.219 18.602,-3.112c5.802,0.413 15.413,2.331 15.551,6.367c0.172,5.046 -8.685,17.123 -20.942,16.955c-4.347,-0.06 -9.737,-1.506 -14.354,-4.023c-7.087,-3.865 -7.354,-7.423 -7.388,-7.558Zm5.403,-0.7c1.625,3.202 12.781,10.321 21.68,7.61c7.693,-2.344 12.334,-9.491 12.463,-12.028c-0.366,-0.329 -1.694,-1.422 -5.877,-2.312c-11.592,-2.466 -20.687,1.513 -24.694,3.88c-1.873,1.106 -2.806,1.942 -3.288,2.492c-0.128,0.024 -0.264,0.05 -0.408,0.077c0,0.004 0.001,0.008 0.001,0.011c0,0 0.001,0 0.001,0c0.143,-0.027 0.275,-0.053 0.395,-0.076c-0.115,0.132 -0.204,0.248 -0.273,0.346Zm34.146,-4.491c-0,-0.002 -0,-0.004 -0,-0.006c-0,-0.008 -0.002,-0.022 -0.003,-0.035c-0.004,0.019 -0.01,0.038 0.003,0.041Zm-33.873,4.145c0.004,-0.004 0.007,-0.008 0.011,-0.012c1.285,-0.24 1.656,-0.309 -0.011,0.012Z"/><path d="M653.361,794.767c0.118,-1.609 -5.723,-4.174 -11.243,-5.139c-6.462,-1.13 -13.118,-1.646 -13.19,0.589c-0.052,1.606 6.565,5.987 11.63,7.377c5.169,1.418 12.626,-0.405 12.803,-2.827Z" style="fill:#fe9cc7;"/></g></g><g><path d="M414.36,781.036c-4.698,-1.563 71.206,-24.468 97.691,-31.524c44.99,-11.988 157.908,-35.658 204.098,-19.005c5.011,1.807 3.429,5.222 3.033,13.109c-0.006,0.109 -35.837,-2.277 -85.126,1.999c-82.413,7.15 -112.417,21.041 -150.203,33.115c-28.412,9.078 -47.231,16.121 -70.736,27.139c-1.511,0.708 0.265,-24.742 1.243,-24.833Z" style="fill-opacity:0.39;"/><path d="M411.594,725.831c-2.543,-0.11 -4.039,-42.512 20.392,-80.076c21.465,-33.003 57.831,-69.857 119.9,-77.95c38.63,-5.037 88.975,21.346 111.245,42.597c34.04,32.484 37.38,63.923 40.328,68.429c2.363,3.612 -292.626,40.795 -291.865,47Z" style="fill:#f5fcfe;"/><path d="M411.322,732.118c-0.278,-0.045 -0.563,-0.034 -0.841,-0.079c-4.268,-0.701 -5.424,-5.016 -5.589,-5.629c-2.448,-9.138 0.055,-49.031 23.191,-83.194c17.218,-25.423 47.437,-59.881 100.253,-73.909c23.302,-6.19 35.65,-5.343 37.694,-5.261c37.175,1.486 79.755,23.748 101.084,43.819c33.14,31.185 38.123,61.755 40.985,68.088l-0.003,0.001c0.48,1.003 0.932,1.388 0.795,3.644c-0.083,1.364 -0.992,2.547 -1.137,2.735c-1.5,1.951 -3.336,2.717 -20.043,5.597c-58.861,10.148 -251.252,35.856 -272.021,42.874c-0.869,0.679 -1.884,1.129 -2.162,1.19c-0.727,0.161 -1.487,0.13 -2.213,0.291l0.007,-0.167Zm6.651,-6.76l0.056,-0.005l-0.023,-0.308c-0.015,0.104 -0.025,0.208 -0.033,0.313Zm-1.612,-8.095c16.277,-3.867 59.402,-10.491 140.906,-21.906c69.028,-9.668 121.99,-16.918 139.069,-20.206c-1.115,-3.784 -2.464,-8.765 -5.277,-15.724c-2.038,-5.044 -10.287,-25.592 -31.58,-46.198c-22.228,-21.51 -70.808,-46.786 -106.754,-42.369c-48.029,5.903 -85.444,31.148 -112.312,70.486c-4.182,6.122 -18.533,26.626 -22.956,58.676c-0.93,6.742 -1.224,12.827 -1.096,17.241Z"/><path d="M721.856,732.796c-0.044,8.483 -2.076,14.574 -1.571,14.504c9.625,-1.345 15.026,-10.521 11.655,-16.629c-5.834,-10.572 -10.043,-13.903 -15.945,-32c-3.263,-10.004 -1.496,-19.778 -6.679,-28.359c-7.684,-12.72 -64.178,-17.06 -117.962,-11.575c-26.189,2.671 -63.407,7.249 -96.575,16.001c-36.425,9.612 -71.751,24.278 -81.571,28.391c-14.622,6.123 -18.622,23.714 -10.591,43.412c0.114,0.279 1.021,-1.711 1.54,-3.07c0.741,-1.938 1.766,-3.954 1.639,-3.526c-0.323,1.088 -2.451,5.436 -3.563,11.749c-2.407,13.661 -8.352,27.211 -5.25,37.879c2.597,8.932 4.29,13.974 12.588,16.536c0.504,0.155 -2.084,-6.876 2.899,-12.334c4.941,-5.414 84.243,-37.389 149.175,-49.547c72.961,-13.66 157.06,-14.8 163.502,-10.484c0.119,0.08 -3.29,-1.129 -3.291,-0.948Z" style="fill:#f5fcfe;"/><path d="M416.768,798.186c-3.262,3.579 -0.87,7.169 -2.2,10.108c-0.833,1.84 -2.994,3.398 -5.463,3.18c-1.569,-0.14 -5.14,-1.807 -7.538,-3.697c-4.758,-3.747 -6.582,-8.705 -8.393,-17.422c-1.583,-7.626 0.421,-15.152 3.28,-24.044c0.012,-0.037 2.042,-8.066 2.979,-13.182c0.378,-2.063 0.587,-3.446 0.851,-4.779c-0.529,-0.684 -0.747,-1.445 -0.828,-1.642c-9.165,-22.297 -3.218,-40.492 12.168,-47.331c0.335,-0.148 20.219,-8.824 45.616,-17.526c30.437,-10.428 63.993,-20.251 134.969,-27.342c47.434,-4.738 105.358,-2.481 118.861,11.253c5.62,5.715 6.534,17.864 6.951,21.291c0.57,4.68 0.905,8.105 4.593,17.561c4.674,11.983 9.345,16.895 13.191,24.211c4.632,8.813 -2.479,20.838 -14.644,22.69c-0.019,0.003 -2.142,0.554 -3.893,-1.126c-2.128,-2.044 -1.196,-4.721 -0.72,-7.426c0.477,-2.703 0.713,-4.675 0.84,-6.347c-24.966,-2.14 -110.504,2.231 -174.493,17.788c-46.478,11.299 -96.237,30.259 -116.191,39.259c-3.209,1.448 -5.196,1.963 -9.925,4.535l-0.011,-0.012Zm-13.509,-59.528c0.39,-0.596 0.821,-1.055 1.337,-1.301c2.061,-0.982 4.869,0.89 3.75,3.775c-1.629,4.2 -2.373,4.836 -3.897,12.312c-1.065,5.226 -3.342,13.153 -3.467,13.742c-0.541,2.548 -1.015,6.352 -1.084,6.907c-1.201,9.628 0.123,12.88 2.241,18.111c0.745,1.839 1.43,3.249 2.128,4.35c0.589,-2.298 1.7,-4.728 3.68,-6.958c2.484,-2.798 11.107,-7.159 14.788,-8.809c21.718,-9.735 83.15,-33.09 143.03,-43.269c68.936,-11.719 147.463,-12.6 159.781,-8.299c0.2,0.07 0.482,0.165 0.804,0.301c-4.652,-7.774 -9.042,-13.022 -14.396,-29.541c-3.291,-10.153 -1.936,-20.928 -6.334,-27.612c-3.536,-5.374 -26.019,-11.702 -68.196,-11.799c-13.818,-0.032 -35.172,0.353 -75.831,5.783c-48.07,6.419 -77.556,14.369 -117.484,29.065c-6.451,2.374 -12.069,4.463 -29.617,11.584c-2.75,1.115 -7.402,3.644 -10.231,9.775c-3.427,7.426 -2.409,16.04 -1.002,21.883Zm325.037,-1.999c-0.617,0.67 -1.441,1.153 -2.375,1.327c-0.073,0.875 -0.157,1.661 -0.252,2.395c0.143,-0.124 0.284,-0.254 0.424,-0.391c1.006,-0.98 1.778,-2.148 2.203,-3.331Z"/><g><g><path d="M417.835,702.509c-0.58,0.256 -2.029,7.047 -2.465,10.861c-1.754,15.345 8.599,18.75 13.907,31.299c2.641,6.244 -7.889,14.288 -4.13,29.369c1.15,4.614 4.97,10.485 8.894,9.091c2.217,-0.787 7.43,-2.879 7.384,-3.359c-0.003,-0.031 -9.033,-5.177 -10.428,-11.604c-0.84,-3.868 4.399,-17.112 -0.325,-26.928c-2.494,-5.183 -7.775,-15.363 -7.956,-29.077c-0.04,-3.084 4.476,-12.523 3.827,-12.461c-2.441,0.235 -5.943,1.592 -8.708,2.809Z" style="fill:#2d2d2f;fill-opacity:0.24;"/><path d="M475.517,680.351c-1.461,6.911 -6.196,11.298 -2.597,22.403c4.921,15.183 14.572,18.638 13.082,23.514c-9.213,30.158 4.541,35.626 5.592,35.07c1.975,-1.043 6.025,-1.095 7.364,-2.738c0.282,-0.345 -10.628,-5.552 -10.315,-33.505c0.089,-7.985 -5.052,-5.806 -8.16,-20.969c-2.685,-13.096 5.847,-24.942 5.042,-26.246c-0.771,-1.248 -5.997,1.853 -10.008,2.471Z" style="fill-opacity:0.23;"/><path d="M544.893,664.276c-2.148,1.286 -2.838,5.341 -2.873,11.58c-0.079,14.059 8.681,17.851 11.963,27.205c1.861,5.305 -0.684,11.558 -1.358,16.619c-1.549,11.646 6.119,24.218 6.889,24.269c2.492,0.167 9.733,-1.334 9.88,-1.675c0.311,-0.724 -6.889,-4.556 -7.595,-13.245c-1.031,-12.681 -2.454,-22.541 -3.889,-25.814c-3.294,-7.514 -6.455,-9.347 -7.521,-19.561c-1.079,-10.352 2.757,-18.632 2.096,-19.186c-0.748,-0.628 -8.025,0.339 -7.592,-0.192Z" style="fill-opacity:0.31;"/><path d="M607.54,658.236c-0.097,-0.562 10.323,8.265 12.545,14.58c3.18,9.041 -0.482,15.184 1.534,21.928c0.929,3.104 12.201,17.378 12.507,21.669c0.636,8.92 -4.844,17.95 -4.305,18.402c0.501,0.421 8.616,-0.325 8.613,-0.35c-0.101,-1.051 2.417,-7.221 -0.366,-19.115c-0.718,-3.068 -9.624,-13.506 -11.706,-22.787c-0.766,-3.414 -0.039,-13.767 -0.716,-17.208c-0.803,-4.084 -8.621,-18.294 -9.286,-18.556c-0.885,-0.349 -7.555,1.32 -8.82,1.437Z" style="fill-opacity:0.3;"/><path d="M675.218,659.847c-0.068,-0.004 10.782,-0.264 10.26,25.526c-0.27,13.319 -0.955,18.461 7.991,33.825c3.64,6.25 1.326,11.625 1.338,11.636c0.467,0.392 9.836,0.637 10.842,0.65c1.497,0.02 -8.042,-16.779 -14.343,-23.583c-4.787,-5.169 -3.2,-8.618 -1.064,-16.588c1.333,-4.976 2.378,-11.99 2.253,-17.415c-0.111,-4.842 -4.751,-12.978 -5.374,-13.501c-1.038,-0.871 -9.195,-0.363 -11.903,-0.55Z" style="fill-opacity:0.28;"/></g><path d="M421.214,702.603c-1.66,3.468 -1.305,16.162 0.425,20.451c2.631,6.52 9.81,15.635 10.874,23.326c0.404,2.924 -0.405,3.722 -1.81,7.836c-3.03,8.874 -3.32,15.841 0.962,21.828c1.842,2.576 4.866,4.471 5.352,4.776c0.849,0.532 0.983,1.709 1.003,1.879c0.002,0.024 -0.561,2.024 -0.572,2.03c-0.615,0.342 -1.152,0.937 -1.851,1.017c-1.468,0.167 -1.502,-0.026 -2.535,-1.076c-7.032,-7.15 -7.098,-15.35 -6.422,-22.323c0.637,-6.568 2.852,-12.821 2.909,-13.719c0.312,-4.965 -8.406,-16.048 -11.418,-24.025c-0.375,-0.994 -1.731,-4.588 -0.881,-13.242c0.224,-2.283 1.166,-9.413 3.057,-10.332c0.017,-0.009 0.212,-0.096 0.232,-0.087c0.385,0.181 0.73,0.439 1.115,0.619l-0.75,0.639l0.31,0.403Z"/><path d="M481.241,678.107c0.123,0.628 0.437,1.208 0.559,1.836c0.008,0.037 -1.102,2.12 -2.355,6.746c-0.466,1.722 -2.839,10.838 -0.65,16.768c2.448,6.631 9.915,12.176 10.102,20.826c0.169,7.822 -4.8,16.018 -1.807,22.861c2.693,6.16 6.842,8.387 10.827,11.346c0.839,0.623 0.881,1.766 0.888,1.937c0.001,0.023 -0.735,1.998 -0.746,2.003c-0.626,0.28 -1.197,0.804 -1.882,0.829c-1.68,0.063 -1.649,-0.25 -2.743,-1.52c-2.493,-2.894 -6.971,-7.374 -8.46,-14.829c-1.612,-8.072 3.591,-18.639 0.074,-26.032c-2.764,-5.81 -10.253,-11.68 -11.256,-19.619c-0.927,-7.341 2.766,-17.52 5.415,-22.259c0.063,-0.113 0.074,-0.284 0.193,-0.336c0.885,-0.389 0.956,-0.168 1.841,-0.557Z"/><path d="M565.569,744.724c-0.854,0.722 -0.91,0.737 -2.024,0.646c-1.354,-0.112 -1.346,-0.279 -2.192,-1.343c-12.311,-15.491 -1.54,-38.363 -10.609,-49.668c-0.734,-0.914 -6.44,-5.858 -6.12,-18.238c0.209,-8.097 3.121,-11.377 3.137,-11.382c0.337,-0.098 0.746,-0.39 1.035,-0.192c0.771,0.531 0.313,0.726 -0.089,1.572c-2.928,6.169 0.043,18.417 2.889,23.12c1.487,2.456 4.385,4.248 6.155,12.685c2.593,12.364 -0.491,28.817 7.882,38.586c0.855,0.998 1.016,1.014 0.907,2.324c-0.094,1.114 -0.118,1.167 -0.971,1.89Z"/><path d="M633.811,737.626c-1.071,-0.219 -1.106,-0.269 -1.71,-1.181c-0.86,-1.302 -0.655,-1.425 -0.203,-2.918c3.301,-10.923 3.001,-16.732 -0.342,-23.579c-4.776,-9.782 -12.579,-19.735 -11.96,-33.946c0.167,-3.837 -5.699,-13.971 -9.287,-15.872c-1.956,-1.036 -1.474,-1.531 -1.221,-3.731c0.001,-0.013 1.61,-1.322 1.632,-1.328c0.207,-0.061 1.204,-0.353 2.624,0.595c5.208,3.474 11.048,15.322 10.519,20.523c-1.004,9.881 1.92,16.79 8.321,30.442c4.253,9.07 6.436,14.794 4.905,28.823c-0.115,1.052 -1.051,1.671 -1.193,1.765c-0.963,0.637 -1.919,0.441 -2.085,0.407Z"/><path d="M678.616,661.924c-0.092,-0.074 -0.944,-0.761 -1.134,-1.742c-0.005,-0.023 0.4,-2.021 0.41,-2.027c0.573,-0.381 1.049,-1.002 1.724,-1.133c1.424,-0.276 1.465,-0.077 2.574,0.856c3.9,3.282 9.824,12.419 8.4,25.335c-1.026,9.3 -4.19,12.704 -2.72,18.371c1.996,7.696 7.974,13.007 12.792,22.25c1.815,3.481 2.534,7.494 2.489,7.599c-0.764,1.792 -0.717,1.821 -0.837,1.939c-0.122,0.119 -0.828,0.809 -1.971,0.794c-1.095,-0.014 -1.14,-0.053 -1.907,-0.837c-1.25,-1.277 -0.865,-1.499 -0.591,-3.269c0.986,-6.361 -1.778,-10.497 -3.978,-13.788c-3.462,-5.18 -8.825,-12.021 -8.317,-18.848c0.457,-6.139 5.867,-16.746 -0.775,-28.681c-2.861,-5.143 -6.011,-6.758 -6.159,-6.819Zm0,0c0.012,0.01 0.012,0.009 -0.004,-0.001c0.001,0 0.003,0.001 0.004,0.001Z"/></g><g><g><path d="M536.839,736.064l-19.413,-30.171l10.159,-5.486c3.85,-2.079 6.457,-3.284 7.82,-3.613c2.088,-0.517 4.226,-0.345 6.413,0.516c2.188,0.862 4.054,2.493 5.599,4.895c1.192,1.852 1.845,3.598 1.958,5.237c0.114,1.64 -0.136,3.111 -0.749,4.412c-0.613,1.302 -1.401,2.37 -2.363,3.204c-1.326,1.104 -3.422,2.43 -6.288,3.977l-4.128,2.229l7.323,11.382l-6.331,3.418Zm-9.798,-28.486l5.509,8.562l3.465,-1.871c2.495,-1.348 4.062,-2.406 4.7,-3.176c0.638,-0.77 0.98,-1.62 1.025,-2.55c0.045,-0.931 -0.22,-1.842 -0.793,-2.733c-0.707,-1.098 -1.624,-1.823 -2.754,-2.174c-1.129,-0.352 -2.264,-0.34 -3.406,0.036c-0.844,0.271 -2.406,1.023 -4.688,2.254l-3.058,1.652Z" style="fill:#26a9e2;fill-rule:nonzero;stroke:#000;stroke-width:4.84px;stroke-linecap:butt;stroke-miterlimit:2;"/><path d="M548.387,690.859l7.784,-3.007l7.925,17.841c1.258,2.832 2.169,4.629 2.735,5.394c0.932,1.219 2.206,1.995 3.822,2.327c1.616,0.332 3.511,0.079 5.684,-0.761c2.209,-0.854 3.703,-1.883 4.483,-3.088c0.779,-1.205 1.033,-2.414 0.762,-3.625c-0.272,-1.212 -0.986,-3.121 -2.144,-5.728l-8.095,-18.223l7.784,-3.008l7.685,17.303c1.757,3.954 2.788,6.83 3.092,8.625c0.305,1.795 0.141,3.473 -0.49,5.034c-0.632,1.56 -1.746,3.04 -3.343,4.438c-1.598,1.398 -3.921,2.687 -6.972,3.865c-3.681,1.423 -6.634,2.138 -8.859,2.147c-2.224,0.008 -4.147,-0.355 -5.767,-1.089c-1.62,-0.734 -2.888,-1.67 -3.804,-2.808c-1.347,-1.691 -2.839,-4.379 -4.476,-8.065l-7.806,-17.572Z" style="fill:#26a9e2;fill-rule:nonzero;stroke:#000;stroke-width:4.84px;stroke-linecap:butt;stroke-miterlimit:2;"/><path d="M593.054,676.887l14.561,-1.449c3.284,-0.327 5.808,-0.355 7.574,-0.085c2.374,0.37 4.461,1.238 6.262,2.605c1.801,1.366 3.241,3.116 4.32,5.247c1.079,2.132 1.778,4.824 2.097,8.075c0.28,2.857 0.118,5.36 -0.486,7.508c-0.739,2.623 -1.947,4.807 -3.624,6.552c-1.266,1.321 -3.041,2.43 -5.327,3.327c-1.71,0.664 -4.037,1.143 -6.979,1.436l-14.991,1.492l-3.407,-34.708Zm8.543,5.079l2.256,22.988l5.948,-0.592c2.225,-0.221 3.82,-0.492 4.786,-0.811c1.264,-0.412 2.288,-1.001 3.074,-1.764c0.786,-0.764 1.371,-1.949 1.757,-3.558c0.386,-1.608 0.447,-3.754 0.184,-6.437c-0.264,-2.683 -0.735,-4.716 -1.414,-6.099c-0.679,-1.382 -1.543,-2.428 -2.591,-3.137c-1.048,-0.708 -2.33,-1.13 -3.847,-1.266c-1.135,-0.11 -3.325,-0.004 -6.573,0.319l-3.58,0.357Z" style="fill:#26a9e2;fill-rule:nonzero;stroke:#000;stroke-width:4.84px;stroke-linecap:butt;stroke-miterlimit:2;"/><path d="M650.044,697.198l0.43,-5.608l16.243,0.675l-1.015,13.26c-1.683,1.297 -4.062,2.401 -7.137,3.314c-3.076,0.912 -6.149,1.304 -9.221,1.177c-3.904,-0.162 -7.251,-1.034 -10.042,-2.615c-2.79,-1.582 -4.812,-3.761 -6.063,-6.539c-1.252,-2.778 -1.755,-5.763 -1.51,-8.957c0.265,-3.467 1.316,-6.513 3.152,-9.14c1.835,-2.627 4.378,-4.594 7.629,-5.901c2.477,-1.006 5.499,-1.435 9.063,-1.287c4.634,0.193 8.187,1.21 10.659,3.051c2.473,1.842 3.966,4.307 4.478,7.395l-7.581,0.938c-0.401,-1.656 -1.29,-2.988 -2.669,-3.994c-1.379,-1.007 -3.155,-1.555 -5.327,-1.645c-3.293,-0.137 -5.982,0.685 -8.068,2.466c-2.086,1.782 -3.27,4.504 -3.55,8.167c-0.303,3.951 0.454,6.955 2.272,9.012c1.818,2.057 4.322,3.152 7.513,3.284c1.578,0.066 3.182,-0.145 4.812,-0.631c1.629,-0.487 3.042,-1.1 4.24,-1.84l0.323,-4.223l-8.631,-0.359Z" style="fill:#26a9e2;fill-rule:nonzero;stroke:#000;stroke-width:4.84px;stroke-linecap:butt;stroke-miterlimit:2;"/><path d="M675.817,713.928l4.371,-13.281l-7.486,-21.78l8.724,2.264l4.565,14.737l12.607,-10.28l8.573,2.225l-19.58,14.802l-4.358,13.238l-7.416,-1.925Z" style="fill:#26a9e2;fill-rule:nonzero;stroke:#000;stroke-width:4.84px;stroke-linecap:butt;stroke-miterlimit:2;"/></g></g></g></g></g></g></svg>